<svg width="611" height="232" viewBox="0 0 611 232" fill="none" xmlns="http://www.w3.org/2000/svg">
<path d="M0 184.156V132.7L83.0886 0.300904L121.183 25.2763L50.0931 138.719L54.2926 145.038H185.375V184.156H0ZM114.884 226.283V68.0052H160.178V226.283H114.884Z" fill="#D19144"/>
<path d="M303.877 232C286.48 232 271.582 229.192 259.183 223.575C246.785 217.757 236.686 209.933 228.887 200.104C221.288 190.274 215.589 178.94 211.79 166.101C208.19 153.062 206.391 139.32 206.391 124.877V107.725C206.391 87.6645 209.89 69.5097 216.889 53.2607C223.888 37.0117 234.587 24.0726 248.985 14.4436C263.383 4.81452 281.68 0 303.877 0C326.074 0 344.272 4.81452 358.47 14.4436C372.868 24.0726 383.566 37.0117 390.565 53.2607C397.564 69.5097 401.064 87.6645 401.064 107.725V124.877C401.064 139.32 399.164 153.062 395.365 166.101C391.765 178.94 386.066 190.274 378.267 200.104C370.668 209.933 360.669 217.757 348.271 223.575C336.073 229.192 321.275 232 303.877 232ZM303.877 186.563C320.075 186.563 332.073 180.946 339.872 169.712C347.871 158.278 351.871 140.624 351.871 116.752C351.871 91.476 347.771 73.3212 339.572 62.2879C331.573 51.054 319.675 45.4371 303.877 45.4371C287.679 45.4371 275.581 51.054 267.582 62.2879C259.583 73.3212 255.584 91.2754 255.584 116.15C255.584 140.223 259.483 157.977 267.282 169.411C275.281 180.846 287.479 186.563 303.877 186.563Z" fill="#D19144"/>
<path d="M425.625 184.156V132.7L508.714 0.300904L546.809 25.2763L475.719 138.719L479.918 145.038H611V184.156H425.625ZM540.51 226.283V68.0052H585.803V226.283H540.51Z" fill="#D19144"/>
</svg>
