<svg width="440" height="434" viewBox="0 0 440 434" fill="none" xmlns="http://www.w3.org/2000/svg">
<path d="M360.123 367.912C359.344 365.057 359.215 347.796 359.215 347.796L352.077 351.43C353.245 354.545 352.855 358.179 351.557 361.293C347.404 370.897 339.617 379.204 330.143 383.746C321.447 387.899 312.363 389.716 302.759 390.365C298.995 390.625 296.399 393.48 292.635 393.091C291.467 392.961 290.04 400.488 269.534 414.116C269.145 414.375 284.719 398.931 286.276 389.716C279.008 388.548 271.87 386.342 265.64 382.448C263.045 380.761 259.8 379.463 256.685 379.593C253.7 379.593 252.143 381.799 250.326 383.746C248.509 385.563 246.562 387.25 244.486 388.678C239.943 391.793 234.752 393.869 229.301 394.778C223.59 395.686 218.139 395.167 212.429 394.129C209.833 393.739 206.718 392.961 203.993 393.35C203.993 395.167 206.718 397.503 207.886 398.931C209.833 401.267 211.91 403.343 214.116 405.29C219.956 410.611 226.705 414.764 233.843 418.009C243.837 422.422 254.609 424.758 265.381 425.666C270.053 426.056 274.855 426.185 279.657 426.056C342.343 424.628 360.772 370.897 360.123 367.912Z" fill="#D19144"/>
<path d="M86.149 101.076C86.2788 101.076 86.2788 101.076 86.4085 101.076C87.317 101.336 88.8744 102.115 87.5766 104.191C87.5766 104.191 87.4468 104.321 87.317 104.451L83.2937 105.878L77.3237 107.955L66.5516 111.849L63.8261 112.887L62.6581 113.276L62.0091 113.536L61.3602 113.146L59.8028 112.108C58.1156 111.07 56.5582 110.161 54.871 109.253C50.9775 107.047 46.9542 104.84 42.9309 102.764C38.9076 100.817 34.7545 98.8701 30.6014 97.4425C28.5249 96.7936 26.4483 96.2744 24.6313 96.4042C23.5931 96.534 22.5548 96.6638 21.6463 97.0532C20.7378 97.3127 19.9591 97.8319 19.5698 98.351C19.1804 98.8701 19.0506 99.3893 19.1804 100.168C19.3102 100.947 19.6995 101.855 20.2187 102.764C21.2569 104.581 22.5548 106.268 24.1122 107.825C27.0972 111.07 30.6014 113.925 34.1056 116.78L39.1671 120.674C39.2969 120.804 39.4267 120.804 39.4267 120.933L39.0374 121.063L38.1289 121.323L36.4417 121.972C35.2736 122.361 34.2354 122.75 33.4566 123.14C31.3801 124.048 29.4333 124.957 27.4866 126.125C23.7228 128.331 20.0889 131.057 17.7528 134.431C16.5847 136.118 15.806 137.935 15.5464 139.882C15.4167 140.79 15.5464 141.829 15.6762 142.737C15.806 143.256 15.9358 143.646 16.0656 144.165C16.1954 144.684 16.4549 145.073 16.5847 145.592C17.7528 148.318 20.2187 149.875 23.3335 150.394C26.4483 150.914 29.6929 150.654 32.9375 150.005C33.7162 149.875 34.6247 149.616 35.4034 149.486L36.5715 149.226L37.6097 148.837C39.0374 148.188 40.7246 147.539 42.282 146.89C45.3968 145.463 48.5116 144.035 51.6264 142.607C64.0857 136.767 76.545 130.667 89.0042 124.697L107.693 115.612C110.678 114.185 113.404 112.368 115.74 110.161C116.908 108.993 117.816 107.825 118.595 106.398C118.984 105.749 119.244 104.97 119.503 104.321C119.633 103.932 119.633 103.542 119.763 103.283C119.893 102.893 119.893 102.504 120.023 102.115L120.152 100.947V99.7786C120.152 98.9999 120.023 98.2212 120.023 97.4425L119.893 96.6638C119.893 96.4042 119.763 96.1447 119.763 95.7553C119.633 95.2362 119.503 94.5873 119.244 94.0681C119.244 94.0681 119.114 93.8085 118.984 93.2894C118.855 92.7703 118.595 92.1214 118.206 91.4724C117.816 90.6937 117.297 90.0448 116.778 89.3959C116.129 88.747 115.48 88.3576 114.701 88.0981C114.053 87.9683 113.533 87.9683 113.014 88.0981C112.755 88.0981 112.495 88.2278 112.365 88.2278C112.236 88.3576 111.976 88.3576 111.846 88.3576C111.197 88.4874 111.068 88.4874 111.068 88.2278C111.068 87.9683 111.457 87.5789 112.106 87.0598C112.755 86.5406 113.793 86.1513 115.091 86.1513C114.961 86.1513 115.61 86.1513 116.648 86.4109C117.687 86.6704 118.984 87.5789 119.893 88.6172C120.931 89.6555 121.58 90.8235 122.099 91.8618C122.489 92.7703 122.748 93.4192 122.748 93.4192C122.878 94.0681 123.137 94.717 123.267 95.366L123.397 96.4042L123.527 97.1829L123.657 98.4808C123.786 99.3893 123.657 100.298 123.657 101.206C123.527 103.153 123.137 104.97 122.359 106.657C120.801 110.161 118.335 112.887 115.48 115.093C114.053 116.131 112.625 117.17 110.938 117.948L106.395 120.155L88.3553 128.85C76.2854 134.691 64.2155 140.531 52.0158 146.241C49.0307 147.669 45.9159 149.097 42.8011 150.394L40.465 151.433L39.2969 151.952L37.9991 152.471C36.3119 152.99 34.6247 153.379 32.9375 153.639C29.5631 154.288 25.9292 154.547 22.2952 153.899C20.4782 153.509 18.6613 152.86 16.9741 151.692C15.2869 150.524 14.1188 148.837 13.2103 147.15C12.9508 146.501 12.6912 145.982 12.5614 145.333C12.4316 144.684 12.1721 144.035 12.1721 143.516C11.9125 142.218 11.9125 140.92 12.0423 139.622C12.3018 137.027 13.4699 134.561 14.7677 132.484C17.623 128.331 21.6463 125.476 25.6696 123.14C27.7462 121.972 29.8227 120.933 32.029 120.025L32.1588 119.895L31.8992 119.636C28.2653 116.78 24.7611 113.795 21.5165 110.291C19.9591 108.604 18.4017 106.787 17.1039 104.451C16.4549 103.283 15.9358 102.115 15.6762 100.687C15.5464 99.9084 15.5464 99.1297 15.806 98.351C15.9358 97.5723 16.3252 96.7936 16.8443 96.1447C17.8826 94.8468 19.1804 94.1979 20.4782 93.6788C21.7761 93.2894 22.9441 93.0298 24.242 92.9001C24.7611 92.7703 25.6696 92.7703 26.3185 92.9001C26.9674 92.9001 27.6164 93.0298 28.2653 93.1596C29.4333 93.4192 30.6014 93.6788 31.7695 94.0681C36.3119 95.4957 40.465 97.5723 44.6181 99.519C48.7712 101.596 52.7945 103.802 56.688 106.008C58.3752 106.917 60.0624 107.955 61.6198 108.993L62.3985 109.512L62.6581 109.383L65.3835 108.474L76.1556 104.581L82.1257 102.504L86.149 101.076Z" fill="#212121"/>
<path d="M20.6081 126.384C20.7379 126.384 20.7379 126.514 20.7379 126.644C20.9975 127.163 21.1273 127.812 20.8677 128.331C20.6081 128.85 19.9592 129.24 18.9209 129.369H18.6614C17.2337 128.461 15.5465 127.812 13.9891 127.552C9.31691 126.774 5.55317 131.705 4.38511 136.378C3.73619 138.844 3.86598 141.439 4.25533 144.035C4.77446 146.631 5.55317 149.097 6.85101 151.433C8.14885 153.769 9.70626 155.975 11.5232 157.792C13.3402 159.609 15.5465 161.166 17.8827 161.945C20.3486 162.724 23.074 163.113 25.5399 162.854H26.1888L26.5782 162.724L27.3569 162.594C27.876 162.464 28.2654 162.334 28.7845 162.075C28.7845 162.075 29.0441 161.945 29.4334 161.815C29.693 161.686 29.9526 161.556 30.2121 161.426C30.4717 161.296 30.8611 161.166 31.1206 160.907C32.4185 159.998 33.5865 158.441 34.2354 156.624C34.495 155.975 34.6248 155.326 34.7546 154.807C34.8844 154.288 34.8844 153.899 35.0142 153.639C35.1439 152.99 35.4035 152.86 35.5333 152.99C35.7929 153.25 36.312 155.067 36.0524 157.273C36.0524 157.143 36.0524 157.792 35.7929 158.701C35.5333 159.609 35.0142 161.037 34.1057 162.075C33.7163 162.724 33.1972 163.113 32.678 163.632C32.1589 164.022 31.6398 164.411 31.1206 164.8C30.6015 165.06 30.2121 165.32 29.9526 165.449C29.693 165.579 29.4334 165.579 29.4334 165.579C28.7845 165.839 28.1356 165.968 27.4867 166.098L26.5782 166.228L25.7995 166.358C25.4101 166.358 25.0208 166.488 24.6314 166.488C23.074 166.488 21.5166 166.488 20.089 166.098C18.6614 165.839 17.2337 165.449 15.6763 164.93C12.8211 163.762 10.3552 161.815 8.27863 159.739C6.20209 157.662 4.5149 155.196 3.21706 152.471C1.91921 149.875 0.880942 147.02 0.361806 144.035C-0.15733 141.05 -0.15733 138.065 0.621374 135.08C1.14051 133.652 1.52986 132.095 2.30857 130.797L2.8277 129.759C3.08727 129.369 3.21706 129.11 3.47662 128.85L4.12554 127.942C4.38511 127.682 4.64468 127.423 4.90425 127.033C5.94252 125.865 7.37014 124.957 8.92755 124.308C10.485 123.789 12.3019 123.529 13.8593 123.789C16.7146 124.308 18.7911 125.216 20.6081 126.384Z" fill="#212121"/>
<path d="M18.0123 131.705C17.623 132.225 16.7145 133.133 15.1571 133.652H15.0273C15.0273 133.522 11.3934 128.201 11.3934 128.201C11.3934 128.201 11.1338 127.163 11.1338 126.255C11.1338 124.827 12.0423 124.827 12.821 125.216C12.821 125.086 14.3784 126.384 14.3784 126.384C14.3784 126.384 17.8826 131.705 18.0123 131.705Z" fill="#212121"/>
<path d="M15.2868 134.691C15.157 135.34 14.7677 136.637 13.5996 137.676L13.4698 137.805C13.3401 137.805 6.33171 133.393 6.33171 133.393C6.33171 133.393 5.42323 132.355 4.7743 131.446C3.73603 130.018 4.7743 129.629 5.81258 129.759C5.81258 129.629 8.14869 130.408 8.14869 130.408C8.14869 130.408 15.157 134.561 15.2868 134.691Z" fill="#212121"/>
<path d="M21.3866 152.86C22.0355 152.99 23.2036 153.25 24.6312 154.158L24.761 154.288L23.2036 158.181C23.2036 158.181 22.5547 158.701 21.9057 158.96C20.8675 159.479 20.3483 158.83 20.0888 158.181C19.959 158.181 19.959 156.884 19.959 156.884L21.3866 152.86Z" fill="#212121"/>
<path d="M26.4482 153.639C26.9674 153.509 28.2652 153.25 29.8226 153.25H29.9524L30.212 156.365C30.212 156.365 29.9524 156.884 29.4333 157.273C28.7844 157.922 27.8759 157.792 27.4865 157.533C27.3567 157.533 26.7078 156.754 26.7078 156.754C26.7078 156.754 26.4482 153.769 26.4482 153.639Z" fill="#212121"/>
<path d="M109.38 93.6788C109.51 93.6788 109.51 93.6788 109.51 93.8086C110.029 94.5873 110.548 96.2745 108.212 96.9234H107.953C106.136 96.1447 104.449 95.366 102.632 94.8468C100.685 94.1979 98.7381 93.549 96.7914 93.4192C95.8829 93.2894 95.1042 93.4192 94.4552 93.6788C93.8063 93.9383 93.417 94.3277 93.2872 94.8468C93.1574 95.366 93.1574 96.0149 93.417 96.6638C93.417 96.6638 93.5468 96.9234 93.6765 97.3127C93.8063 97.5723 93.9361 97.7021 94.0659 97.9617C94.1957 98.2212 94.4553 98.4808 94.7148 98.8701C95.7531 100.038 97.5701 101.466 99.1275 102.504C100.425 103.413 101.464 103.802 101.853 104.321C102.372 104.71 102.502 104.97 102.242 105.1C101.983 105.23 101.464 105.23 100.815 105.1C100.036 104.97 99.1275 104.71 98.219 104.451C98.3488 104.581 96.0127 103.802 93.8063 102.245C93.2872 101.855 92.7681 101.336 92.2489 100.947C91.7298 100.428 91.3404 100.038 90.9511 99.5191C90.3022 98.6106 90.0426 97.8319 90.0426 97.8319C89.6532 96.6638 89.5235 95.2362 90.0426 93.8086C90.5617 92.2512 91.8596 91.2129 93.1574 90.564C94.585 89.915 96.0127 89.915 97.1807 90.0448C99.5168 90.3044 101.723 90.9533 103.8 91.6022C105.617 92.1214 107.563 92.9001 109.38 93.6788Z" fill="#212121"/>
<path d="M122.229 100.817C122.099 100.817 122.099 100.817 122.099 100.687C121.71 99.9084 121.191 98.2212 123.527 97.7021H123.786C125.603 98.6106 127.42 99.5191 129.108 100.687C130.146 101.466 131.314 102.115 132.352 103.283C132.742 103.672 133.52 104.84 133.52 105.878V106.527C133.52 106.787 133.52 106.917 133.39 107.176C133.261 107.566 133.131 108.085 132.871 108.474C132.871 108.474 132.742 108.604 132.612 108.864C132.482 108.993 132.222 109.253 131.833 109.642C131.184 110.161 130.146 110.551 129.108 110.681C127.031 111.07 124.565 110.81 122.618 110.421C119.374 109.902 118.465 109.383 118.855 108.993C119.244 108.734 120.931 108.604 122.878 108.474C122.618 108.344 125.084 108.474 127.291 107.955C128.329 107.695 129.367 107.306 129.627 107.047C129.757 106.917 129.886 106.787 129.886 106.657C129.886 106.527 129.886 106.527 129.886 106.527C129.886 106.398 130.016 106.398 130.016 106.268C130.016 106.138 130.016 106.138 130.016 106.138C130.016 106.138 129.886 106.008 129.757 105.878C129.108 105.23 128.199 104.581 127.161 103.932C125.733 102.634 123.916 101.725 122.229 100.817Z" fill="#212121"/>
<path d="M81.6065 109.642C78.6214 109.642 78.6214 114.185 81.6065 114.185C84.5915 114.185 84.5915 109.642 81.6065 109.642Z" fill="#212121"/>
<path d="M73.1709 112.887C70.1859 112.887 70.1859 117.429 73.1709 117.429C76.1559 117.559 76.1559 112.887 73.1709 112.887Z" fill="#212121"/>
<path d="M36.312 125.216C33.327 125.216 33.327 129.759 36.312 129.759C39.297 129.759 39.297 125.216 36.312 125.216Z" fill="#212121"/>
<path d="M29.044 128.98C26.0589 128.98 26.0589 133.522 29.044 133.522C32.029 133.652 32.029 128.98 29.044 128.98Z" fill="#212121"/>
<path d="M30.0826 85.7619C29.4336 85.8917 28.6549 85.6321 28.9145 84.4641C28.9145 84.4641 28.9145 84.3343 29.0443 84.3343L31.3804 82.5173L57.3372 62.0114C57.3372 62.0114 59.5435 60.454 61.2307 59.5455C63.9562 57.8583 63.1775 58.8966 61.7499 60.3242C61.8797 60.1945 58.2457 63.5688 58.2457 63.5688L32.4187 83.9449L30.0826 85.7619Z" fill="#212121"/>
<path d="M52.5352 77.9749C51.8863 78.1047 51.1076 77.8451 51.3671 76.677C51.3671 76.677 51.3671 76.5472 51.4969 76.5472L53.833 74.7303L79.7899 54.2244C79.7899 54.2244 81.9962 52.667 83.6834 51.7585C86.4088 50.0713 85.6301 51.1096 84.2025 52.5372C84.3323 52.4074 80.6983 55.7818 80.6983 55.7818L54.8713 76.0281L52.5352 77.9749Z" fill="#212121"/>
<path d="M104.319 136.637C103.67 136.637 102.891 136.378 103.281 135.21C103.281 135.21 103.281 135.08 103.41 135.08L106.006 133.522L119.374 125.476L120.801 124.567C120.801 124.567 123.267 123.27 124.955 122.621C127.94 121.323 127.031 122.231 125.474 123.529C125.733 123.399 121.58 126.255 121.58 126.255L120.412 127.033L107.044 135.08L104.319 136.637Z" fill="#212121"/>
<path d="M119.114 133.393C118.984 133.522 118.984 133.522 119.114 133.393C118.465 133.393 117.686 133.133 118.076 131.965C118.076 131.965 118.076 131.835 118.206 131.835L120.801 130.278L134.169 122.231L135.597 121.323C135.597 121.323 138.063 120.025 139.75 119.376C142.735 118.078 141.826 118.987 140.269 120.284C140.528 120.155 136.375 123.01 136.375 123.01L135.207 123.789L121.84 131.835L119.114 133.393Z" fill="#212121"/>
<path d="M82.515 131.965C82.3852 131.965 82.3852 131.965 82.3852 131.835C81.9958 131.057 81.6065 129.369 84.0724 128.85H84.3319C86.0191 129.889 87.8361 130.927 89.5233 132.095C91.0807 133.133 92.6381 134.301 94.1955 135.469C95.7529 136.767 97.1806 137.935 98.4784 139.752C98.738 140.271 99.1273 140.661 99.3869 141.439C99.5167 141.699 99.6464 142.088 99.6464 142.478C99.6464 142.867 99.6464 143.386 99.5167 143.775C99.3869 144.295 99.1273 144.684 98.9975 145.073C98.738 145.333 98.4784 145.592 98.2188 145.852C97.6997 146.241 97.1806 146.631 96.6614 146.89C94.5849 147.799 92.5083 148.058 90.5616 148.188C86.668 148.448 82.7745 148.188 79.0108 147.669C77.064 147.409 75.247 147.15 73.3003 146.89L71.4833 146.501L69.7961 146.112C69.7961 146.112 68.4983 145.722 66.6813 145.203C64.8643 144.684 62.658 143.775 60.9708 142.997C57.9858 141.699 57.2071 140.92 57.5964 140.79C57.9858 140.531 59.673 140.79 61.6197 141.18C61.4899 141.05 63.6963 141.569 66.1622 141.958C68.4983 142.348 70.9642 142.737 70.9642 142.737L72.6514 142.997L74.7279 143.386C76.5449 143.646 78.3619 143.905 80.1788 144.165C83.8128 144.554 87.4467 144.814 90.9509 144.554C92.6381 144.424 94.4551 144.165 95.6231 143.516C95.8827 143.386 96.1423 143.256 96.2721 142.997C96.5316 142.737 96.4018 142.867 96.4018 142.867C96.4018 142.867 96.2721 142.218 95.7529 141.569C94.8444 140.401 93.5466 139.103 92.119 138.065C90.6913 136.897 89.2637 135.859 87.7063 134.95C85.8893 133.912 84.2021 132.874 82.515 131.965Z" fill="#212121"/>
<path d="M147.537 75.1196C147.537 75.3792 147.407 75.7685 147.277 75.8983C147.148 76.1579 146.758 76.2877 146.109 76.0281L145.98 75.8983C145.46 74.86 145.201 73.692 145.201 72.5239C145.331 71.4857 145.72 70.4474 146.369 69.6687C147.018 68.89 147.797 68.2411 148.705 67.8517C150.392 66.8134 152.469 66.5539 154.416 66.8134C156.362 67.073 158.049 67.9815 159.607 69.0198C161.164 70.1878 162.462 71.6154 163.241 73.4324L163.5 74.2111L163.63 74.9898C163.63 75.509 163.63 75.8983 163.63 76.4175C163.5 77.3259 163.371 78.3642 162.851 79.2727C162.332 80.1812 161.424 80.9599 160.386 81.3492L159.996 81.479H159.866H159.737L160.126 81.7386C160.515 82.1279 160.905 82.5173 161.164 82.9067C161.813 83.8151 162.073 84.8534 162.203 85.8917C162.203 86.93 162.073 87.8384 161.943 88.7469C161.813 89.6554 161.424 90.4341 161.035 91.2128C160.645 91.9915 160.126 92.7702 159.607 93.4192C158.049 95.3659 155.713 96.4042 153.377 96.7935C151.041 97.3127 148.705 97.1829 146.499 97.0531C145.331 96.9233 144.163 96.534 142.995 96.0148C141.826 95.3659 140.918 94.4574 140.269 93.4192C139.62 92.2511 139.361 90.9533 139.49 89.6554C139.49 89.3959 139.62 89.0065 139.62 88.7469L139.75 88.4874H139.62H139.361C139.231 88.4874 139.101 88.4874 138.841 88.4874C138.193 88.4874 137.544 88.3576 136.895 88.098C136.246 87.8384 135.597 87.4491 135.207 86.93C134.688 86.4108 134.429 85.7619 134.299 85.113C133.91 83.9449 134.039 82.2577 134.948 81.2195C135.337 80.7003 135.986 80.1812 136.505 79.9216C136.635 79.7918 136.765 79.7918 136.895 79.6621H137.024L136.765 79.2727C136.505 78.7536 136.116 78.2344 135.986 77.5855C135.597 76.4175 135.337 74.9898 135.856 73.692C136.376 72.3941 137.414 71.4857 138.452 70.8367C138.971 70.5772 139.49 70.1878 140.139 70.058C140.399 69.9282 140.788 69.7985 141.048 69.7985H141.437C141.697 69.7985 142.086 69.7985 142.346 69.7985C142.735 69.7985 142.995 69.9282 143.254 70.058C143.254 70.058 143.643 70.1878 144.163 70.5772C144.552 70.8367 145.071 71.3559 145.59 72.0048C145.98 72.6537 146.369 73.3026 146.628 73.9516C147.148 75.509 147.018 76.0281 146.888 76.0281C146.628 75.8983 146.239 75.2494 145.72 74.4707C145.72 74.6005 145.46 74.0813 144.941 73.5622C144.552 73.0431 143.773 72.3941 143.254 72.1346C142.865 71.875 142.475 71.875 142.475 71.875C142.346 71.7452 142.086 71.7452 141.956 71.7452C141.826 71.7452 141.567 71.7452 141.437 71.7452H141.178C140.918 71.7452 140.788 71.875 140.529 71.875C140.139 72.0048 139.62 72.2644 139.231 72.3941C138.452 72.9133 137.673 73.5622 137.414 74.3409C137.154 75.1196 137.154 76.0281 137.544 76.9366C137.673 77.4557 137.933 77.8451 138.193 78.2344L138.452 78.6238C138.582 78.8833 138.841 79.1429 138.971 79.2727C139.361 79.6621 139.75 80.1812 140.139 80.7003C139.62 80.8301 138.841 80.9599 138.322 81.0897C138.063 81.0897 137.673 81.2195 137.544 81.3492C137.414 81.3492 137.284 81.479 137.284 81.479C136.895 81.7386 136.505 81.9982 136.246 82.2577C135.727 82.9067 135.597 83.8151 135.856 84.7236C136.116 85.6321 136.635 86.1513 137.414 86.5406C137.803 86.6704 138.322 86.8002 138.712 86.8002C138.841 86.8002 138.971 86.8002 139.101 86.8002H139.231H139.62C140.009 86.8002 140.658 86.6704 141.307 86.5406L142.346 86.281L142.865 86.1513H143.124H143.254C143.254 86.1513 143.254 86.1513 143.254 86.281L141.956 87.9682L141.567 88.4874C141.437 88.6171 141.437 88.7469 141.307 88.8767L141.178 89.3959C141.178 89.6554 141.048 89.7852 141.048 90.0448C140.918 90.9533 141.178 91.9915 141.697 92.7702C142.605 94.4574 144.552 95.3659 146.499 95.6255C148.575 95.8851 150.782 95.8851 152.858 95.4957C154.935 95.1064 156.752 94.1979 158.049 92.6405C158.569 92.1213 158.958 91.4724 159.218 90.8235C159.607 90.1746 159.737 89.3959 159.996 88.7469C160.126 87.9682 160.256 87.0597 160.256 86.4108C160.256 85.6321 159.996 84.9832 159.607 84.3343C159.347 84.0747 159.218 83.8151 158.828 83.5556C158.698 83.4258 158.698 83.296 158.049 83.0364L157.401 82.6471C157.271 82.5173 156.881 82.3875 156.492 82.3875C156.103 82.3875 156.232 82.1279 156.232 81.9982V81.7386V81.479V81.2195V80.8301C156.232 80.7003 156.232 80.7003 156.232 80.5705L157.011 80.4408L157.79 80.311L158.309 80.1812L158.828 80.0514L159.088 79.9216C159.737 79.6621 160.386 79.2727 160.645 78.6238C161.035 78.1046 161.164 77.3259 161.164 76.5472C161.164 76.1579 161.164 75.7685 161.164 75.3792L161.035 74.86L160.905 74.3409C160.386 72.9133 159.218 71.6154 157.92 70.707C156.622 69.7985 155.064 69.0198 153.507 68.7602C151.95 68.5006 150.392 68.7602 148.965 69.5389C148.186 69.9282 147.667 70.4474 147.148 70.9665C146.628 71.4857 146.369 72.1346 146.369 72.9133C146.888 73.5622 147.148 74.3409 147.537 75.1196Z" fill="#212121"/>
<path d="M182.319 63.8284C182.189 63.8284 182.189 63.8284 182.319 63.8284C182.059 63.8284 181.67 63.8284 181.54 63.5689C181.281 63.4391 181.021 63.0497 181.281 62.4008C181.281 62.4008 181.281 62.271 181.41 62.271C182.319 61.6221 183.747 61.2327 185.044 61.7519C185.693 62.0114 186.342 62.4008 186.732 62.9199C187.251 63.4391 187.64 63.8284 187.9 64.4773C188.549 65.6454 188.808 66.9432 188.678 68.2411C188.549 69.5389 188.159 70.707 187.51 71.7453C186.861 72.7835 186.083 73.8218 184.785 74.4707C184.525 74.6005 184.136 74.7303 183.747 74.8601C183.487 74.8601 183.098 74.9899 182.838 74.9899C182.189 74.9899 181.54 74.9898 180.762 74.7303C180.113 74.4707 179.464 73.9516 179.074 73.4324C178.945 73.1729 178.945 73.1729 178.945 73.1729L178.815 73.3027C178.036 74.4707 176.479 75.1196 175.181 75.1196C174.402 75.1196 173.623 75.1196 172.845 74.8601C172.066 74.7303 171.287 74.3409 170.638 73.9516C169.211 73.0431 168.173 71.4857 167.653 69.9283C167.134 68.3709 166.875 66.8135 166.745 65.256C166.745 64.4773 166.745 63.5689 167.004 62.6604C167.264 61.8817 167.783 60.9732 168.562 60.454C169.211 59.8051 170.119 59.4158 171.028 59.4158C171.287 59.4158 171.547 59.4158 171.677 59.4158H171.806C171.806 59.1562 171.677 58.5073 171.806 58.1179C171.936 57.2094 172.585 56.0414 173.494 55.652C173.883 55.3925 174.402 55.2627 174.921 55.2627C175.44 55.1329 175.96 55.2627 176.479 55.3925C176.998 55.5222 177.387 55.9116 177.777 56.3009L178.036 56.5605L178.166 56.6903L178.296 56.5605C178.425 56.4307 178.685 56.3009 178.815 56.1712C179.464 55.652 180.372 55.2627 181.41 55.3925C181.67 55.3925 181.93 55.3925 182.189 55.5222C182.449 55.5222 182.708 55.652 182.838 55.7818C183.098 55.9116 183.227 56.0414 183.487 56.1712L183.747 56.4307C183.747 56.4307 183.747 56.4307 183.876 56.4307L184.266 56.8201C184.655 57.2094 184.785 57.5988 185.044 57.9881C185.044 57.9881 185.044 58.1179 185.174 58.3775C185.304 58.6371 185.434 59.1562 185.434 59.6753C185.434 60.3243 185.174 60.9732 184.785 61.4923C184.396 62.0114 183.876 62.5306 183.487 62.7902C182.059 63.6986 181.41 63.5689 181.54 63.4391C181.54 63.1795 182.319 62.6604 182.838 62.0114C182.838 62.0114 183.098 61.7519 183.357 61.2327C183.617 60.7136 183.876 60.1945 183.747 59.6753C183.747 59.4158 183.617 59.1562 183.487 58.8966C183.357 58.7668 183.357 58.6371 183.357 58.6371C183.227 58.3775 183.098 58.2477 182.838 57.9881L182.579 57.7286L182.449 57.5988C182.319 57.469 182.189 57.469 182.059 57.3392C181.93 57.3392 181.8 57.2094 181.67 57.2094C181.54 57.2094 181.41 57.2094 181.281 57.2094C180.762 57.2094 180.242 57.3392 179.723 57.7286C179.464 57.8584 179.334 57.9881 178.685 58.6371L177.906 59.5456L177.647 59.8051L177.517 59.9349V59.8051L177.257 59.1562C177.128 58.7668 176.998 58.2477 176.738 57.9881C176.738 57.8584 176.608 57.8584 176.608 57.7286L176.479 57.5988L176.349 57.469C176.219 57.3392 175.96 57.2094 175.83 57.0797C175.44 56.9499 174.921 57.0797 174.402 57.2094C174.013 57.469 173.753 57.8584 173.623 58.3775C173.623 58.6371 173.623 58.8966 173.623 59.286C173.623 59.6753 173.753 60.0647 173.883 60.454L174.402 61.7519C174.532 62.1412 175.051 62.7901 174.272 62.4008C173.883 62.1412 173.234 61.8817 172.715 61.6221C172.326 61.4923 171.677 61.2327 171.547 61.2327C171.417 61.2327 171.287 61.2327 171.158 61.2327C170.638 61.2327 169.989 61.4923 169.6 61.8817C168.692 62.6604 168.302 63.8284 168.432 65.256C168.562 66.6837 168.692 68.1113 169.211 69.4091C169.73 70.707 170.509 71.7453 171.547 72.524C172.066 72.9133 172.585 73.0431 173.234 73.1729C173.883 73.3027 174.532 73.4324 175.181 73.3027C176.219 73.3027 176.868 72.9133 177.387 72.2644L177.517 72.1346C177.647 72.0048 177.647 71.875 177.647 71.7453L177.777 71.3559L177.906 70.707C177.906 70.4474 178.036 70.5772 178.166 70.4474H178.425H178.685H179.204H179.594C179.723 70.4474 179.723 70.4474 179.853 70.4474C179.853 70.707 179.983 70.8368 179.983 70.9665C180.113 71.2261 180.113 71.6155 180.242 71.875C180.372 72.0048 180.502 72.3942 180.502 72.3942C180.762 72.7835 181.021 72.9133 181.41 73.0431C181.8 73.1729 182.189 73.1729 182.708 73.1729C182.968 73.1729 183.227 73.1729 183.487 73.0431C183.617 73.0431 183.876 72.9133 184.006 72.7835C184.785 72.3942 185.434 71.6155 185.953 70.707C186.472 69.7985 186.861 68.89 186.861 67.8517C186.991 66.8135 186.861 65.905 186.342 65.1263C185.953 64.3476 185.174 63.5689 184.396 63.3093C183.617 63.3093 182.968 63.4391 182.319 63.8284Z" fill="#212121"/>
<path d="M202.565 50.331C202.565 50.2012 202.565 50.2012 202.565 50.331C202.825 50.2012 203.085 50.0714 203.344 50.0714C203.604 50.0714 203.993 50.2012 204.123 50.8501C204.123 50.8501 204.123 50.9799 204.123 51.1097C203.863 51.7586 203.344 52.2777 202.695 52.6671C202.046 53.0564 201.268 53.0564 200.748 52.9267C199.97 52.7969 199.061 52.5373 198.412 51.8884C197.763 51.3693 197.244 50.5906 196.985 49.9416C196.725 49.1629 196.466 48.3842 196.466 47.6055C196.466 46.8268 196.466 46.0481 196.985 45.1396C197.114 45.0098 197.244 44.6205 197.374 44.6205C197.504 44.4907 197.634 44.3609 197.763 44.2311C198.023 43.9716 198.412 43.712 198.931 43.5822C199.451 43.4524 199.97 43.3226 200.489 43.4524H200.619C200.619 43.3226 200.619 43.1929 200.619 43.0631C200.748 42.5439 200.878 42.1546 201.138 41.7652C201.657 41.1163 202.306 40.727 202.955 40.3376C203.604 40.078 204.253 39.8185 205.031 39.6887C206.199 39.5589 207.497 39.9483 208.406 40.5972C209.314 41.2461 210.093 42.0248 210.742 42.8035C211.521 43.5822 212.04 44.8801 211.91 46.1779C211.78 46.8268 211.521 47.4757 211.131 47.9949C211.001 48.1247 210.872 48.2544 210.742 48.3842L210.612 48.514L210.742 48.6438C211.131 49.1629 211.391 49.9416 211.261 50.7203C211.001 51.499 210.612 52.0182 209.963 52.5373C209.574 52.7969 209.184 52.9267 208.795 52.9267C208.665 52.9267 208.406 52.9267 208.276 52.9267H208.146C208.146 52.7969 208.016 53.316 207.887 53.4458C207.887 53.5756 207.757 53.5756 207.757 53.7054C207.627 54.0947 207.238 54.3543 206.978 54.7436C206.719 54.8734 206.589 55.0032 206.329 55.133C206.329 55.133 206.07 55.2628 205.421 55.2628C204.902 55.2628 204.253 55.133 203.604 54.8734C203.474 54.8734 203.344 54.7436 203.344 54.7436C203.214 54.6139 203.085 54.6139 203.085 54.4841C202.695 54.2245 202.436 53.8352 202.306 53.316C202.176 52.9267 202.176 52.4075 202.306 52.148C202.436 51.2395 202.825 50.8501 202.955 50.5906C203.214 50.331 203.344 50.331 203.344 50.4608C203.474 50.7203 203.214 51.499 203.214 52.2777C203.214 52.148 203.214 53.0564 203.863 53.4458C203.863 53.4458 203.993 53.4458 203.993 53.5756L204.123 53.7054C204.512 53.8352 205.031 53.8352 205.291 53.8352C205.55 53.8352 205.68 53.7054 205.68 53.7054C205.68 53.7054 205.81 53.7054 205.81 53.5756C205.94 53.4458 206.07 53.316 206.199 53.1862C206.199 53.0564 206.199 53.316 206.459 52.2777C206.459 52.148 206.459 52.0182 206.589 51.8884L206.848 51.7586L207.238 51.6288L208.016 51.2395C208.276 51.3693 208.535 51.499 208.665 51.499C208.795 51.499 208.795 51.499 208.795 51.499C208.925 51.499 208.925 51.499 209.055 51.3693C209.184 51.2395 209.444 50.9799 209.444 50.7203C209.444 50.5905 209.444 50.331 209.184 50.0714C208.925 49.6821 207.367 48.7736 206.589 48.1247H206.848L207.497 47.9949C207.887 47.8651 208.406 47.8651 208.665 47.7353L209.055 47.6055L209.314 47.4757C209.444 47.4757 209.444 47.346 209.444 47.346C209.704 47.0864 209.833 46.8268 209.833 46.4375C209.963 45.7885 209.704 45.0098 209.055 44.3609C207.887 42.9333 206.329 41.7652 204.772 41.895C204.253 41.895 203.863 42.0248 203.474 42.2844C203.085 42.5439 202.436 42.9333 202.306 43.1929C202.176 43.3226 202.046 43.5822 202.046 43.712V43.8418C202.046 43.9716 202.046 44.2311 202.176 44.3609C202.176 44.4907 202.306 44.7503 202.436 45.0098L202.176 45.2694L201.397 45.9183L201.138 46.0481L201.008 46.1779C200.878 46.0481 200.748 46.0481 200.748 45.9183L200.229 45.529L199.84 45.3992C199.71 45.3992 199.451 45.3992 199.321 45.3992C199.191 45.3992 198.931 45.529 198.672 45.7885C198.542 45.9183 198.412 45.9183 198.412 46.0481C198.283 46.1779 198.283 46.1779 198.283 46.3077C197.893 47.0864 197.893 48.514 198.412 49.4225C198.802 50.4608 199.71 51.2395 200.748 51.3693C201.787 51.1097 202.176 50.8501 202.565 50.331Z" fill="#212121"/>
<path d="M232.156 24.8933C232.026 24.8933 232.026 24.8933 232.156 24.8933C231.897 24.7635 231.637 24.7635 231.377 24.5039C231.118 24.3741 230.858 23.9848 231.248 23.3359L231.377 23.2061C232.026 22.9465 233.065 23.0763 233.584 23.4657C234.233 23.9848 234.492 24.3741 234.752 25.0231C235.141 26.0613 234.882 27.2294 234.492 28.0081C234.233 28.3974 233.973 28.9166 233.584 29.1762C233.194 29.5655 232.805 29.9549 232.156 30.0846C231.767 30.2144 231.637 30.2144 231.377 30.2144C231.118 30.2144 230.858 30.2144 230.469 30.0846C230.209 29.9549 229.82 29.8251 229.561 29.5655C229.171 29.8251 228.782 30.0846 228.392 30.0846C228.003 30.0846 227.614 30.0846 227.354 30.0846C226.705 30.0846 226.056 29.8251 225.537 29.4357C224.888 29.0464 224.369 28.2677 224.11 27.6187C223.85 26.9698 223.72 26.1911 223.72 25.5422C223.72 24.8933 223.59 23.9848 224.11 23.2061C224.499 22.4274 225.407 21.7785 226.316 21.6487C226.316 21.6487 226.316 21.6487 226.316 21.5189C226.316 21.3891 226.316 21.2593 226.446 21.1295C226.575 20.87 226.705 20.6104 226.835 20.3508C227.224 19.8317 227.744 19.7019 228.263 19.7019C228.522 19.7019 228.782 19.7019 229.041 19.8317C229.171 19.8317 229.301 19.9615 229.431 19.9615C229.561 20.0913 229.69 20.0913 229.82 20.2211C229.95 20.3508 229.95 20.3508 229.95 20.3508C229.69 20.6104 230.988 19.5721 232.156 20.3508C232.675 20.6104 233.065 21.1295 233.194 21.6487C233.454 22.1678 233.454 22.8167 233.065 23.3359C232.546 24.2444 231.897 24.2444 231.637 24.3741C231.377 24.3741 231.248 24.3741 231.248 24.2444C231.248 23.9848 232.026 23.4657 232.286 22.8167C232.286 22.8167 232.416 22.4274 232.026 21.9082C231.767 21.6487 231.507 21.5189 231.377 21.6487C231.118 21.7785 231.118 21.6487 230.469 22.2976C230.08 22.1678 229.82 22.1678 229.82 22.1678L229.431 22.038L229.041 21.9082C228.912 21.7785 228.912 21.6487 228.782 21.6487C228.652 21.6487 228.782 21.5189 228.522 21.6487C228.392 21.6487 228.392 21.6487 228.392 21.7785C228.392 21.7785 228.392 21.7785 228.392 22.038C228.392 22.1678 228.652 22.687 228.263 22.8167L227.744 23.2061L227.224 23.5954C227.095 23.7252 226.965 23.5954 226.835 23.5954H226.705C226.056 23.7252 225.797 24.3741 225.927 25.672C226.056 26.7103 226.316 27.7485 227.095 28.1379C227.354 28.2677 227.744 28.3975 228.133 28.5272C228.652 28.5272 228.912 28.5272 229.041 28.3975L229.171 28.2677L229.301 28.1379C229.301 28.0081 229.431 27.8783 229.431 27.7485C229.69 27.7485 229.82 27.7485 229.95 27.7485H230.339H230.858H231.118H231.248C231.248 27.8783 231.248 27.8783 231.248 28.0081L231.377 28.3975L231.507 28.657C231.637 28.7868 231.637 28.7868 231.637 28.7868C231.767 28.7868 232.156 28.7868 232.416 28.7868C232.675 28.7868 233.194 28.1379 233.454 27.6187C233.714 27.0996 233.843 26.4507 233.584 25.9316C233.454 25.672 233.194 25.2826 233.065 25.1528C232.416 24.7635 232.286 24.7635 232.156 24.8933Z" fill="#212121"/>
<path d="M247.99 5.03628C248.12 5.16606 248.509 5.03628 248.769 5.16606C249.028 5.16606 249.417 5.42563 249.288 6.20433C249.288 6.20433 249.158 6.33412 249.158 6.4639C248.769 6.72347 248.249 6.98304 247.86 6.85325C247.471 6.85325 247.081 6.72347 246.822 6.4639C246.173 6.07455 245.654 5.42563 245.524 4.77671C245.394 3.998 245.394 3.34909 245.654 2.57038C245.784 2.4406 245.784 2.18103 245.913 2.05124C246.043 1.92146 246.303 1.66189 246.432 1.53211C246.692 1.40232 247.081 1.14276 247.73 1.14276C248.249 1.14276 248.769 1.40232 249.028 1.66189C249.158 1.79168 249.288 1.92146 249.417 2.05124L249.547 2.18103C248.898 2.57038 251.105 1.27254 247.99 3.08952C247.99 2.95973 247.86 2.82995 247.86 2.82995C247.73 2.4406 247.73 2.05124 247.86 1.53211C247.99 1.01297 248.379 0.62362 248.639 0.493835C249.288 0.104483 250.196 -0.155084 251.105 0.104484C252.013 0.364052 252.662 0.883188 253.051 1.53211C253.311 1.79168 253.441 2.18103 253.571 2.4406C253.7 2.82995 253.96 3.2193 253.96 3.73844C253.96 4.25757 253.83 4.77671 253.571 5.16606C253.441 5.42563 253.181 5.55541 253.181 5.55541C253.181 5.6852 253.181 5.81498 253.181 5.94477C253.181 6.20433 253.181 6.4639 253.051 6.72347C253.051 6.72347 252.922 6.98304 252.662 7.24261C252.532 7.37239 252.403 7.50217 252.143 7.63196C252.013 7.63196 251.883 7.76174 251.624 7.76174C251.494 7.76174 251.234 7.76174 251.234 7.76174C251.234 7.76174 251.234 7.76174 251.105 7.63196C251.105 7.63196 251.105 7.63196 250.975 7.63196C250.975 7.63196 250.715 7.89153 250.586 8.02131C250.326 8.1511 249.937 8.28088 249.677 8.28088C249.028 8.15109 248.639 7.89153 248.379 7.50217C247.99 6.98304 248.12 6.4639 248.249 6.20433C248.379 5.94477 248.509 5.6852 248.639 5.6852C248.898 5.42563 249.028 5.42563 249.028 5.55541C249.028 5.6852 249.028 5.94477 248.898 6.20433C248.898 6.4639 248.898 6.85325 249.028 6.85325C249.028 6.85325 249.158 6.85325 249.417 6.98304C249.547 6.98304 249.677 6.98304 249.677 6.98304C249.677 6.98304 249.677 6.98304 249.807 6.85325V6.72347C249.807 6.72347 249.937 6.4639 249.937 6.33412C250.196 6.20433 250.326 6.20434 250.586 6.07455C250.715 6.07455 250.975 6.07455 251.364 5.94477C251.364 6.07455 251.494 6.20433 251.364 5.94477V5.81498C251.624 5.94477 251.494 5.81498 251.494 5.94477H251.364C251.364 5.94477 251.364 5.94477 251.364 5.81498C251.364 5.81498 251.234 5.6852 251.234 5.55541L251.624 4.77671V4.64693L251.883 4.12779C252.013 3.86822 252.143 3.86822 252.143 3.86822C252.143 3.73844 252.273 3.73844 252.273 3.60865C252.273 3.47887 252.273 3.34908 252.143 3.08952C252.013 2.82995 251.883 2.57038 251.754 2.4406C251.105 1.66189 250.456 1.53211 249.807 1.92146C249.677 1.92146 249.677 2.05124 249.677 2.05124C249.677 2.05124 249.677 2.18103 249.677 2.31081C246.562 3.99801 248.769 2.82995 248.12 3.2193C248.12 3.08952 247.99 3.08952 247.99 3.08952C247.86 2.95973 247.86 2.95973 247.86 2.95973C247.86 2.95973 247.73 2.95973 247.601 3.08952C247.601 3.08952 247.601 3.2193 247.471 3.2193C247.341 3.47887 247.341 3.99801 247.471 4.25757C247.601 4.51714 247.73 4.77671 247.86 4.90649C247.73 5.03628 247.86 5.16606 247.99 5.03628C247.99 5.16606 247.99 5.16606 247.99 5.03628Z" fill="#212121"/>
<path d="M260.838 353.247C260.838 353.247 262.266 336.375 259.281 317.556C256.166 298.738 238.126 282.644 227.873 291.47C217.62 300.295 190.885 327.42 169.47 313.793C157.79 306.395 160.775 298.608 163.76 292.248C170.379 278.102 194.129 266.811 194.129 266.811L195.687 282.904C195.687 282.904 206.848 257.207 229.041 250.328L226.316 274.857C226.316 274.857 235.141 254.871 253.96 243.06C253.96 243.06 268.885 266.811 266.679 297.31L272 290.951C272 290.951 276.283 307.433 272 320.541L279.657 315.61C279.527 315.61 274.985 343.254 260.838 353.247Z" fill="#212121"/>
<path d="M192.183 265.772C192.312 265.772 192.312 265.772 192.442 265.772C193.48 265.902 194.908 266.681 193.74 268.887C193.74 268.887 193.61 269.017 193.48 269.147C191.663 269.926 189.976 270.704 188.159 271.613C183.357 274.079 178.685 276.934 174.402 280.308C170.249 283.683 166.485 287.706 164.019 292.248C161.554 296.791 160.385 302.372 162.462 306.654C162.981 307.693 163.76 308.731 164.539 309.51C165.447 310.418 166.356 311.067 167.524 311.846L168.043 312.105C168.173 312.235 168.302 312.235 168.432 312.365L169.211 312.754C169.73 313.014 170.249 313.273 170.638 313.403C170.638 313.403 171.806 314.052 173.364 314.701C175.051 315.35 177.128 316.129 178.945 316.648C182.059 317.426 182.968 317.816 182.708 318.205C182.319 318.595 180.632 318.724 178.555 318.595C178.815 318.724 176.349 318.465 173.753 317.946C172.455 317.686 171.287 317.297 170.249 317.037C169.341 316.778 168.692 316.518 168.692 316.518C168.173 316.258 167.524 315.999 167.004 315.739C166.745 315.61 166.485 315.48 166.226 315.35L165.577 314.961C165.317 314.831 164.928 314.571 164.668 314.312C162.202 312.624 159.996 310.288 158.698 307.433C157.53 304.448 157.4 301.333 157.92 298.348C158.439 295.363 159.477 292.638 160.905 290.172C163.76 285.11 167.783 280.957 172.196 277.453C176.609 273.949 181.411 270.964 186.342 268.498C188.419 267.33 190.236 266.551 192.183 265.772Z" fill="#212121"/>
<path d="M234.492 277.713C234.492 277.842 234.492 277.842 234.362 277.842C233.973 278.102 233.454 278.491 232.935 278.361C232.286 278.361 231.637 277.972 231.377 276.804V276.545C232.156 274.598 232.935 272.781 233.843 270.964C234.362 269.926 234.882 268.887 235.401 267.849C235.92 266.811 236.569 265.772 237.088 264.734C237.607 263.696 238.386 262.787 238.905 261.749C239.554 260.711 240.203 259.802 240.852 258.894C241.501 257.985 242.15 257.077 242.928 256.298C242.928 256.298 243.837 255.26 245.135 253.832C245.783 253.183 246.562 252.405 247.211 251.626C247.99 250.847 248.769 250.198 249.417 249.549C250.845 248.381 251.624 247.732 252.402 247.084C252.143 247.343 250.845 248.381 249.547 249.809C249.417 249.939 249.158 250.198 248.639 250.847C247.99 251.496 247.211 252.405 246.562 253.443C245.783 254.351 245.135 255.39 244.615 256.168C244.356 256.558 244.096 256.817 243.966 257.077C243.837 257.336 243.707 257.466 243.707 257.466C243.188 258.245 242.669 259.024 242.15 259.802C241.63 260.841 240.981 261.749 240.462 262.787C239.943 263.826 239.424 264.864 238.905 265.902C238.386 266.94 237.996 267.979 237.477 269.017C236.958 270.055 236.569 271.094 236.179 272.132C235.66 274.079 235.141 275.896 234.492 277.713Z" fill="#ECEDF2"/>
<path d="M167.264 312.884C167.264 312.754 167.394 312.754 167.524 312.754C167.913 312.495 168.692 312.365 169.211 312.624C169.73 312.884 170.119 313.403 170.249 314.571V314.831C169.211 316.388 168.302 318.075 167.653 319.763C165.058 325.862 163.89 332.741 164.409 339.36C164.928 346.109 166.875 352.728 169.86 358.828C170.249 359.606 170.509 360.385 170.898 361.164L172.196 363.37C173.104 364.798 173.883 366.355 174.792 367.783L177.777 371.936C178.296 372.585 178.685 373.363 179.204 374.012L180.762 375.959C185.304 380.761 191.404 384.006 197.893 385.563C204.382 386.991 211.391 387.12 218.01 385.823C224.629 384.655 231.118 382.189 237.088 378.814C240.073 377.127 242.798 375.18 245.394 372.974C247.99 370.768 250.326 368.302 252.402 365.706L253.96 363.63C254.349 363.24 254.609 362.721 254.868 362.202C254.868 362.202 255.128 361.942 255.387 361.553C255.647 361.164 256.166 360.515 256.685 359.736C257.204 358.957 257.724 358.179 258.243 357.27C258.762 356.362 259.281 355.453 259.8 354.674C261.228 351.819 261.877 351.041 262.136 351.43C262.396 351.819 262.136 353.506 261.617 355.583C261.617 355.453 261.487 355.972 261.228 356.881C261.098 357.27 260.838 357.789 260.709 358.308C260.449 358.828 260.189 359.476 259.93 359.996C259.67 360.515 259.411 361.164 259.151 361.683C258.892 362.202 258.632 362.721 258.372 363.11C257.853 364.019 257.594 364.538 257.594 364.538C257.334 365.057 256.945 365.447 256.555 365.966L256.036 366.744L255.258 367.783L253.57 369.859C248.898 375.18 243.188 379.593 236.958 382.967C233.843 384.655 230.599 386.082 227.224 387.12C223.85 388.159 220.476 389.067 216.971 389.586C209.963 390.625 202.695 390.495 195.817 388.548C192.312 387.64 188.938 386.212 185.823 384.395C182.708 382.578 179.853 380.112 177.517 377.387C176.219 375.959 175.311 374.531 174.272 373.104L171.287 368.821L168.692 364.279C168.302 363.5 167.783 362.721 167.394 361.942L166.356 359.477L165.317 357.011L164.798 355.843L164.409 354.545C163.89 352.858 163.241 351.17 162.722 349.483L161.554 344.292C161.294 342.475 161.164 340.788 160.905 338.971C160.386 331.833 161.683 324.565 164.409 317.946C165.058 316.518 166.096 314.701 167.264 312.884Z" fill="#212121"/>
<path d="M251.883 304.059C251.883 303.929 251.883 303.929 252.013 303.929C252.402 303.669 252.922 303.41 253.57 303.41C254.219 303.41 254.868 303.799 255.258 304.967C255.258 304.967 255.258 305.227 255.258 305.357C254.609 306.914 253.83 308.342 253.051 309.639C252.792 310.029 252.662 310.288 252.402 310.678L251.883 311.456C251.234 312.365 250.585 313.273 249.936 314.052C248.509 315.739 247.081 317.297 245.524 318.854C239.294 324.824 232.026 329.626 224.369 333.39C216.712 337.283 208.665 340.268 200.359 342.345C192.053 344.421 183.487 345.46 174.792 344.811C172.585 344.681 170.509 344.292 168.302 343.773C167.264 343.513 166.096 343.253 165.058 342.864C164.019 342.475 162.851 341.956 161.813 341.047C161.683 340.917 161.554 340.788 161.424 340.658L161.164 340.398C161.164 340.398 161.424 340.788 161.294 340.528L161.164 340.398C160.905 340.009 160.645 339.749 160.515 339.49C160.126 338.841 159.866 338.322 159.737 337.673C159.347 336.505 159.217 335.337 159.088 334.039C158.958 332.871 159.088 331.703 159.217 330.535C159.217 330.015 159.347 329.367 159.477 328.847L159.607 328.069C159.607 327.939 159.607 327.939 159.607 327.939L159.347 328.328C159.217 328.458 159.088 328.718 158.958 328.847C158.698 329.237 158.439 329.626 158.309 330.015C157.92 330.794 157.66 331.703 157.4 332.481C157.271 333.26 157.141 334.428 157.011 335.466L156.752 338.581C156.492 342.215 156.492 345.719 157.79 348.834C158.049 349.613 158.439 350.392 158.958 351.04C159.217 351.43 159.477 351.689 159.607 352.079C159.866 352.468 160.126 352.728 160.385 352.987C160.775 353.506 161.554 354.026 162.202 354.545C162.981 354.934 163.63 355.453 164.409 355.843C167.004 357.14 169.99 358.179 172.845 358.957C175.83 359.736 178.815 360.385 181.8 360.774C184.785 361.164 187.9 361.423 190.755 361.164C193.48 360.904 195.557 359.476 197.634 357.14C198.153 356.621 198.802 355.972 199.451 355.323C200.099 354.804 200.878 354.155 201.916 353.766C203.733 352.987 205.81 352.987 207.497 353.247C208.406 353.377 209.184 353.636 209.963 353.766C210.223 353.766 210.352 353.896 210.482 353.896L210.871 354.026H211.78C213.078 354.026 214.505 353.766 215.933 353.377C218.788 352.598 221.644 351.43 224.369 350.002C227.095 348.575 229.69 347.017 232.286 345.33C237.347 341.956 242.149 337.932 246.303 333.52C250.456 329.107 254.09 324.045 256.036 318.465L256.555 316.907C256.685 316.648 256.685 316.388 256.815 316.129L257.075 314.831C257.075 314.961 257.204 313.663 257.075 311.975C256.945 310.288 256.555 308.212 255.907 306.525C255.258 305.097 254.738 304.318 254.349 303.799C254.09 303.28 253.96 303.02 254.219 303.02C254.609 303.02 256.296 303.799 257.594 305.616C257.464 305.356 259.021 307.563 259.8 310.159C260.189 311.456 260.449 312.754 260.579 313.792C260.579 314.052 260.579 314.312 260.579 314.441C260.579 314.701 260.579 314.701 260.579 315.09C260.579 315.609 260.449 315.739 260.449 315.739L260.06 317.426C260.06 317.686 259.93 317.946 259.8 318.205L259.541 318.984C259.021 320.541 258.502 321.969 257.724 323.396C254.868 329.107 250.975 334.039 246.562 338.322C242.149 342.605 237.218 346.498 232.026 349.743C229.431 351.43 226.705 352.857 223.85 354.155C220.995 355.453 218.01 356.621 214.895 357.14C213.208 357.4 211.52 357.659 209.703 357.27L207.627 356.751C206.978 356.621 206.329 356.491 205.68 356.491C204.382 356.491 203.474 356.751 202.436 357.4C201.527 358.049 200.489 359.217 199.321 360.385C198.153 361.553 196.725 362.591 195.168 363.37C194.778 363.63 194.389 363.759 193.87 363.889C193.48 364.019 192.961 364.278 192.572 364.278C191.793 364.408 190.885 364.538 190.106 364.538C186.861 364.668 183.747 364.408 180.632 364.019C177.517 363.5 174.532 362.851 171.547 362.072C168.562 361.293 165.577 360.255 162.722 358.698C161.813 358.308 160.905 357.659 160.126 357.27C159.347 356.621 158.439 356.102 157.66 355.194C157.271 354.804 156.881 354.415 156.622 353.896C156.362 353.506 155.973 353.117 155.713 352.598C155.194 351.689 154.675 350.781 154.286 349.872C152.728 345.979 152.728 341.696 152.988 337.932L153.247 334.817C153.377 333.779 153.377 332.871 153.637 331.573C153.896 330.405 154.286 329.237 154.805 328.198C155.064 327.679 155.324 327.16 155.713 326.641C155.843 326.382 156.103 326.122 156.232 325.862L156.492 325.473L156.622 325.213L156.881 324.954C158.179 323.267 159.737 322.099 161.034 321.06L162.073 320.411L162.981 319.892L164.928 318.724L166.615 317.686L166.745 317.556C166.745 317.556 166.875 317.426 166.875 317.556L166.615 318.335L165.966 320.022L164.539 323.526L164.149 324.435C164.019 324.694 164.019 324.954 163.89 325.213L163.5 326.771L163.111 328.328C162.981 328.588 162.981 328.847 162.981 329.107C162.851 329.626 162.722 330.015 162.722 330.535C162.592 331.443 162.592 332.481 162.592 333.39C162.592 335.207 163.241 337.154 164.149 337.932C164.668 338.322 165.447 338.711 166.356 339.1C167.264 339.49 168.173 339.749 169.211 339.879C171.158 340.268 173.104 340.658 175.181 340.788C183.357 341.436 191.663 340.398 199.58 338.451C207.627 336.505 215.414 333.52 222.812 329.756C230.209 326.122 237.218 321.45 243.058 315.869C244.486 314.441 245.913 313.014 247.211 311.327C247.86 310.548 248.509 309.769 249.028 308.861L249.417 308.212C249.677 307.952 249.807 307.563 249.936 307.303C250.715 306.654 251.364 305.357 251.883 304.059Z" fill="#212121"/>
<path d="M182.449 346.628C176.219 346.628 176.089 356.362 182.449 356.362C188.678 356.492 188.678 346.628 182.449 346.628Z" fill="#212121"/>
<path d="M219.178 338.971C212.948 338.971 212.818 348.704 219.178 348.704C225.537 348.704 225.537 338.971 219.178 338.971Z" fill="#212121"/>
<path d="M170.898 335.467C170.898 335.467 184.136 335.207 184.395 329.756" stroke="#212121" stroke-width="2.6598" stroke-miterlimit="10" stroke-linecap="round"/>
<path d="M206.329 320.541C206.329 320.541 208.925 323.786 212.948 323.137C216.971 322.488 220.735 321.32 222.033 321.839" stroke="#212121" stroke-width="2.6598" stroke-miterlimit="10" stroke-linecap="round"/>
<path d="M198.153 359.476C198.153 359.476 198.931 363.37 202.176 365.706C204.642 367.393 209.054 367.783 211.261 364.278" stroke="#212121" stroke-width="2.6598" stroke-miterlimit="10" stroke-linecap="round"/>
<path d="M220.216 361.683C220.346 361.683 220.346 361.683 220.476 361.683C220.995 361.812 221.644 362.202 221.903 362.721C222.033 363.37 221.773 364.019 221.384 364.927C221.384 364.927 221.254 365.057 221.254 365.187C219.956 365.576 219.048 366.614 218.659 368.042C218.269 369.21 218.269 370.897 218.529 372.195C218.788 373.493 219.307 374.661 220.346 375.44C222.163 376.997 225.537 376.608 227.224 374.791C227.743 374.142 228.133 373.493 228.392 372.714C228.392 372.714 228.522 372.455 228.652 372.065C228.782 371.676 228.911 371.027 228.911 370.248C228.911 368.691 228.263 366.874 226.965 365.576C225.926 364.538 225.018 364.019 224.629 363.629C224.109 363.24 223.98 363.11 224.239 362.981C224.629 362.721 226.575 362.721 228.392 364.149C228.263 364.019 228.782 364.408 229.56 365.057C230.339 365.836 231.118 367.004 231.637 368.302C232.156 369.729 232.286 371.157 232.156 372.325C232.026 373.363 231.767 374.142 231.767 374.142C231.377 375.31 230.728 376.348 229.95 377.257C228.522 378.814 226.446 379.723 224.369 379.852C222.292 380.112 220.086 379.463 218.399 378.165C216.582 376.867 215.674 374.791 215.284 372.844C215.154 372.325 215.154 371.806 215.154 371.417C215.154 370.897 215.025 370.508 215.154 369.989C215.154 369.08 215.284 368.042 215.544 367.004C215.803 365.836 216.452 364.668 217.361 363.629C217.88 362.721 219.048 362.072 220.216 361.683Z" fill="#212121"/>
<path d="M154.935 346.628C155.064 346.628 155.064 346.628 155.194 346.758C155.843 347.407 156.622 348.964 154.415 350.002L154.156 350.132C152.209 349.613 150.262 349.094 148.316 348.445C143.254 346.758 138.322 344.811 133.65 342.345C131.314 341.047 128.978 339.619 126.771 337.932C125.603 337.024 124.695 336.245 123.657 335.466L120.672 333.001C119.763 332.352 118.984 331.573 118.076 330.794C118.076 330.794 117.816 330.535 117.427 330.145C117.038 329.756 116.389 329.107 115.87 328.198C115.221 327.42 114.702 326.252 114.312 325.084C113.923 323.916 113.793 322.748 113.793 321.839C113.663 318.465 114.053 317.556 114.442 317.816C114.831 318.075 115.221 319.763 115.74 321.579C115.74 321.32 116.129 323.656 117.427 325.343C118.076 326.122 118.855 326.901 119.504 327.55C120.152 328.069 120.672 328.458 120.672 328.458C121.321 329.107 122.099 329.626 122.748 330.275L125.733 332.741C126.771 333.649 127.81 334.428 128.718 335.207C130.665 336.764 132.871 338.062 135.078 339.23C139.49 341.696 144.292 343.513 149.224 345.07C151.171 345.59 153.118 346.109 154.935 346.628Z" fill="#212121"/>
<path d="M175.83 372.325C175.96 372.325 175.96 372.325 176.089 372.455C176.868 373.104 177.777 374.531 175.7 375.829L175.44 375.959L169.47 375.18C162.722 374.272 155.843 373.363 149.094 372.195C145.72 371.546 142.345 371.027 138.971 370.119L136.375 369.47C135.467 369.21 134.558 368.821 133.78 368.561C132.093 367.912 130.535 367.004 128.978 366.225C122.878 362.851 117.167 358.698 111.976 354.155C109.38 351.949 106.785 349.483 104.449 347.017L101.723 344.162C101.723 344.162 100.815 343.124 99.7763 341.566C98.6082 340.009 97.4402 338.062 96.4019 336.375C93.1573 330.664 95.3636 332.352 98.0891 335.337C97.9593 335.207 99.6465 336.894 101.204 338.711C102.112 339.62 102.891 340.398 103.54 341.047C104.189 341.696 104.578 342.085 104.578 342.085L105.746 343.253L106.266 343.902L106.785 344.422L107.823 345.2C110.159 347.536 112.625 349.743 115.091 351.949C120.152 356.232 125.603 360.125 131.314 363.24C132.741 364.019 134.169 364.668 135.726 365.317C137.154 365.836 138.712 366.355 140.269 366.744C143.514 367.523 146.758 368.172 150.003 368.691C156.622 369.859 163.241 370.768 169.86 371.676L175.83 372.325Z" fill="#212121"/>
<path d="M113.015 312.884C112.625 313.144 112.106 313.144 111.587 313.144C111.068 313.014 110.419 312.754 109.64 312.365L109.51 312.235C109.51 312.235 109.51 312.105 109.64 311.716C109.64 311.456 109.77 311.067 109.77 310.548C109.77 309.51 109.64 308.342 108.991 307.303C108.472 306.265 107.564 305.486 106.655 305.097C106.266 304.837 105.876 304.708 105.617 304.578C105.357 304.448 105.228 304.448 105.228 304.448C105.228 304.448 104.838 304.189 104.319 303.929C103.8 303.669 103.021 303.28 102.372 303.02C100.036 302.112 100.945 301.333 102.632 301.074C102.502 301.074 103.54 300.814 104.579 300.944C105.098 300.944 105.617 300.944 106.006 300.944C106.396 301.074 106.655 301.074 106.655 301.074C106.655 301.074 106.915 301.204 107.174 301.204C107.304 301.333 107.564 301.333 107.823 301.463C108.083 301.593 108.342 301.723 108.602 301.852C109.251 302.112 109.9 302.631 110.549 303.28C110.808 303.54 111.198 303.929 111.457 304.318C111.717 304.708 111.976 305.097 112.236 305.486C113.144 307.174 113.404 309.12 113.404 310.548C113.274 311.846 113.015 312.754 113.015 312.884Z" fill="#212121"/>
<path d="M102.113 307.044C102.113 307.044 102.113 307.044 102.113 307.174C101.983 307.433 101.723 307.822 101.204 308.212C100.685 308.471 100.036 308.731 99.2573 308.861H99.1275C99.1275 308.861 98.9977 308.731 98.8679 308.342C98.7381 308.082 98.4786 307.693 98.0892 307.174C97.4403 306.265 96.5318 305.097 95.3638 304.189C94.3255 303.28 93.1574 302.761 92.2489 302.501C91.9894 302.501 91.8596 302.372 91.6 302.372C91.4702 302.372 91.2107 302.372 91.0809 302.372C90.8213 302.372 90.6915 302.372 90.6915 302.372C90.6915 302.372 90.3022 302.372 89.783 302.372C89.5235 302.372 89.1341 302.372 88.8745 302.501C88.4852 302.501 88.0958 302.501 87.8363 302.631C86.6682 303.02 86.1491 302.891 86.0193 302.501C85.8895 302.112 86.2789 301.593 86.798 300.814C86.798 300.814 86.9278 300.684 87.1874 300.425C87.4469 300.165 87.9661 299.906 88.4852 299.646C89.5235 299.127 90.6915 298.867 90.6915 298.867C90.6915 298.867 90.9511 298.867 91.3404 298.867C91.6 298.867 91.8596 298.867 92.1192 298.867C92.3787 298.867 92.7681 298.997 93.1574 299.127C94.585 299.516 96.402 300.295 97.6999 301.593C99.1275 302.761 100.166 304.059 100.944 305.097C101.593 306.135 102.113 306.914 102.113 307.044Z" fill="#212121"/>
<path d="M97.6996 309.25C97.6996 309.25 97.6996 309.25 97.6996 309.38C97.6996 309.639 97.6996 310.159 97.4401 310.678C97.1805 311.197 96.6614 311.716 95.8827 312.105H95.7529C95.7529 312.105 95.4933 311.976 95.2337 311.716C94.8444 311.456 94.455 311.197 93.8061 310.937C92.6381 310.288 90.9509 309.639 89.2637 309.25C87.5765 308.861 85.8893 308.731 84.5914 308.861C83.9425 308.861 83.4234 308.99 83.1638 309.12C82.7745 309.25 82.6447 309.25 82.6447 309.25C82.6447 309.25 82.1256 309.38 81.3468 309.38C80.9575 309.38 80.5681 309.51 80.1788 309.639C79.7894 309.769 79.2703 309.769 78.8809 309.899C76.1555 310.937 76.4151 309.769 77.8427 308.212C77.7129 308.212 78.6214 307.433 79.6597 306.784C80.1788 306.395 80.8277 306.265 81.2171 306.005C81.4766 305.876 81.6064 305.876 81.7362 305.746C81.866 305.746 81.9958 305.616 81.9958 305.616C81.9958 305.616 82.2553 305.616 82.6447 305.486C83.1638 305.357 83.683 305.227 84.5914 305.227C86.1489 305.097 88.2254 305.227 90.302 305.746C92.2487 306.265 94.1955 307.044 95.4933 307.693C96.7912 308.601 97.5699 309.12 97.6996 309.25Z" fill="#212121"/>
<path d="M93.6764 315.48C93.8062 315.61 93.8062 315.61 93.8062 315.739C94.0657 316.258 94.0657 317.037 93.8062 317.556C93.4168 318.075 92.7679 318.205 91.7296 318.335H91.4701C90.1722 317.297 88.485 316.518 86.7978 315.869C86.4085 315.739 86.0191 315.61 85.6298 315.48L84.9809 315.35C84.7213 315.35 84.7213 315.22 84.4617 315.22C83.8128 315.09 82.9043 315.09 82.1256 315.09C80.5682 315.09 78.7512 315.35 77.5832 315.999C76.9342 316.258 76.8045 316.648 76.8045 316.648C76.8045 316.648 76.8045 316.648 76.8045 316.778V317.037V317.556C76.9342 317.816 76.8045 318.205 76.9342 318.335C77.064 318.854 77.3236 319.114 77.9725 319.503C78.4917 319.763 79.2704 320.152 80.0491 320.282L83.1639 321.19C83.1639 321.19 83.5532 321.32 84.0724 321.58C84.5915 321.839 85.3702 322.099 86.2787 322.618C87.1872 323.137 88.0957 323.656 89.0042 324.305C89.9126 324.954 90.6914 325.863 91.3403 326.641C93.4168 329.237 93.6764 330.275 93.1572 330.275C92.6381 330.275 91.3403 329.107 89.9126 328.069C89.9126 328.199 89.5233 327.809 88.8744 327.42C88.2255 327.031 87.1872 326.511 86.1489 325.992C85.1106 325.603 84.0724 325.214 83.1639 325.084C82.2554 324.824 81.7363 324.694 81.7363 324.694L79.0108 323.916C78.1023 323.656 77.064 323.267 76.1555 322.748C75.1173 322.229 74.079 321.06 73.6896 319.892C73.4301 319.244 73.4301 318.724 73.3003 318.075V317.297C73.3003 317.037 73.3003 316.778 73.4301 316.258C73.4301 315.999 73.5599 315.869 73.5599 315.61C73.6896 315.48 73.6896 315.22 73.8194 315.09C73.9492 314.701 74.2088 314.442 74.4684 314.182C74.9875 313.663 75.5066 313.403 76.0258 313.014C78.1023 311.976 80.0491 311.846 82.1256 311.716C83.1639 311.716 84.0724 311.716 85.2404 311.976C85.5 311.976 85.8893 312.105 86.0191 312.235L86.668 312.495C87.0574 312.625 87.5765 312.754 87.9659 313.014C89.9126 313.144 91.8594 314.052 93.6764 315.48Z" fill="#212121"/>
<path d="M267.198 351.041C267.068 351.041 267.068 351.041 266.938 351.041C266.549 350.911 265.9 350.781 265.51 350.392C265.121 350.002 264.862 349.224 265.51 348.056C265.51 348.056 265.64 347.796 265.77 347.796C267.847 346.887 269.923 346.498 271.87 346.109C273.168 345.849 274.336 345.719 275.634 345.46L276.542 345.2L276.931 345.07H277.191C277.451 345.59 276.672 343.773 277.71 346.368V346.239V346.109C277.71 345.979 277.71 345.979 277.71 345.849C277.71 345.719 277.58 345.59 277.58 345.33C277.58 345.2 277.451 345.07 277.451 345.07H277.58L277.84 344.811C278.1 344.681 278.359 344.422 278.748 344.162C279.008 344.032 279.268 343.902 279.787 343.773H280.046C280.176 343.773 279.397 343.773 279.657 343.773H279.787H280.046L280.955 343.643L282.772 343.254C290.299 341.956 297.957 340.917 305.354 339.62C309.118 338.971 312.752 338.192 316.516 337.413C318.333 337.024 320.15 336.505 321.967 335.986C323.784 335.466 325.471 334.818 327.288 334.169C334.296 331.573 341.175 328.328 347.534 324.435C353.893 320.541 359.993 315.999 365.704 311.067C366.353 310.418 367.131 309.899 367.78 309.25L369.727 307.433C369.857 307.174 370.116 306.914 370.376 306.395C370.636 306.005 370.895 305.486 371.674 304.967L373.75 303.15C376.476 300.684 379.072 297.959 381.408 294.974C386.08 289.134 390.233 282.644 395.295 276.804C395.943 276.025 396.592 275.376 397.241 274.598C397.89 273.819 398.539 273.17 399.188 272.521L400.226 271.483C400.356 271.353 400.486 271.223 400.616 271.094L401.005 270.834C401.265 270.704 401.524 270.445 401.654 270.315C402.562 269.666 403.471 269.277 404.379 268.887C406.196 268.109 408.143 267.46 410.09 267.07C411.128 266.811 412.037 266.681 413.075 266.551C413.594 266.421 414.113 266.421 414.632 266.421C414.892 266.421 415.152 266.421 415.411 266.421H416.06C417.228 266.421 418.526 266.421 419.954 266.94C419.954 266.94 420.473 267.07 420.862 267.46C421.381 267.719 422.03 268.238 422.939 268.628C424.496 269.666 426.443 271.094 427.87 272.521C429.168 273.689 429.687 274.598 429.947 275.247C430.206 275.896 430.077 276.025 429.817 276.025C429.298 275.896 428.26 274.987 426.443 274.079C426.572 274.208 424.626 273.04 422.419 272.002C421.381 271.483 420.213 270.964 419.434 270.704C419.175 270.574 419.045 270.574 418.915 270.445C418.785 270.315 418.656 270.445 418.526 270.315C418.396 270.315 418.266 270.315 418.266 270.315C418.137 270.185 417.877 270.185 417.617 270.185C417.358 270.185 417.228 270.055 416.968 270.055C416.709 270.055 416.449 270.055 416.32 270.055H415.93C415.671 270.055 415.152 270.055 414.762 270.055C414.373 270.055 413.854 270.185 413.464 270.185C411.777 270.445 409.96 270.834 408.273 271.353C406.586 271.872 404.899 272.521 403.471 273.43C403.082 273.689 402.822 273.949 402.562 274.079L401.654 274.987C401.005 275.636 400.356 276.285 399.837 276.934C398.539 278.232 397.371 279.659 396.333 281.087C391.661 286.797 387.637 293.157 382.705 298.997C380.24 301.852 377.514 304.708 374.529 307.174L374.01 307.693L373.75 307.952C373.621 308.082 373.361 308.471 373.101 308.861C372.842 309.25 372.582 309.769 371.933 310.288L370.895 311.197C369.468 312.495 368.04 313.663 366.612 314.961C355.061 324.694 341.823 332.741 327.547 337.803C325.73 338.451 323.913 339.1 322.096 339.62C320.279 340.139 318.462 340.658 316.516 341.047C312.882 341.956 309.118 342.605 305.354 343.254C297.957 344.551 290.559 345.59 283.161 346.887L281.474 347.147L280.565 347.277H280.306H280.176C280.436 348.445 279.787 345.719 279.787 345.979V346.109L279.917 346.498C279.917 346.628 280.046 346.758 280.046 347.017L280.176 347.277C280.046 347.277 279.787 347.536 279.527 347.666C279.397 347.796 279.268 347.926 279.008 347.926C278.748 348.056 278.619 348.185 278.1 348.315C277.451 348.445 276.802 348.704 276.153 348.834C274.855 349.094 273.557 349.353 272.389 349.483C270.572 349.872 268.755 350.262 267.198 351.041Z" fill="#212121"/>
<path d="M417.877 282.774C417.747 282.774 417.747 282.774 417.747 282.644C417.488 282.255 417.228 281.736 417.228 281.087C417.228 280.438 417.617 279.789 418.785 279.4C418.785 279.4 419.045 279.4 419.175 279.4C421.122 280.178 423.068 281.217 424.756 282.385C425.664 283.034 426.573 283.683 427.351 284.332C427.741 284.721 428.26 285.11 428.649 285.5C429.038 285.889 429.558 286.278 429.947 286.668C429.947 286.668 430.855 287.706 432.023 289.393C432.543 290.172 433.062 291.08 433.581 292.119L433.711 292.508L433.97 293.027C434.1 293.416 434.36 293.806 434.489 294.065C434.489 294.195 434.619 294.195 434.489 294.325L434.36 294.584L433.97 295.104C433.711 295.363 433.451 295.753 433.321 295.882C429.298 300.944 429.947 298.348 431.764 294.714C431.764 294.844 431.764 294.584 431.764 294.584C431.764 294.455 431.894 294.455 431.764 294.325C431.634 294.195 431.634 294.325 431.245 293.676C430.985 293.287 430.596 292.768 430.206 292.378C429.428 291.47 428.649 290.561 428 290.042C427.351 289.393 426.962 289.004 426.962 289.004C426.313 288.355 425.664 287.706 425.015 287.187C424.236 286.538 423.458 286.019 422.679 285.5C421.251 284.332 419.564 283.423 417.877 282.774Z" fill="#212121"/>
<path d="M422.809 278.881C422.679 278.881 422.679 278.881 422.679 278.751C422.42 278.491 422.03 277.972 421.9 277.453C421.771 276.934 421.9 276.155 423.068 275.506C423.068 275.506 423.328 275.376 423.458 275.376C425.664 275.636 427.741 276.285 429.687 277.193L429.817 277.323C430.856 277.842 431.894 278.362 432.932 279.01C432.932 279.01 433.192 279.27 433.711 279.659C434.23 280.049 434.879 280.568 435.528 281.347C435.917 281.736 436.177 282.125 436.566 282.515C436.696 282.774 436.955 282.904 437.085 283.164C437.345 283.423 437.604 283.812 437.864 284.202C438.383 284.851 438.772 285.5 439.291 286.149L439.421 286.278V286.408L439.162 286.538L438.513 286.797L437.345 287.187C436.826 287.317 436.306 287.576 435.787 287.706C435.528 287.836 435.138 287.836 434.879 287.966C434.36 288.095 433.97 288.225 433.581 288.225C432.932 288.355 432.672 288.225 432.802 287.966C432.932 287.706 433.321 287.317 433.841 286.927C434.1 286.668 434.489 286.538 434.879 286.278C435.138 286.149 435.138 286.019 435.268 286.019L435.528 285.889C435.398 285.889 435.658 285.759 435.658 285.629C435.528 285.5 435.398 285.5 435.268 285.37L435.009 285.24C434.749 285.11 434.619 284.851 434.36 284.721C433.451 283.942 432.543 283.293 431.764 282.904C431.375 282.644 431.115 282.515 430.855 282.385C430.596 282.255 430.466 282.255 430.466 282.255C429.687 281.736 428.909 281.347 428.13 280.957L428 280.827C426.313 279.659 424.496 279.14 422.809 278.881Z" fill="#212121"/>
<path d="M413.335 290.431C413.205 290.431 413.205 290.431 413.335 290.431C413.205 290.042 413.075 289.523 413.075 289.004C413.075 288.485 413.205 287.706 413.854 287.057L413.984 286.927C413.984 286.927 415.152 287.187 416.579 287.576C418.007 288.095 419.954 288.874 421.641 289.912C423.458 290.951 425.015 292.378 425.924 293.676C426.183 294.065 426.573 294.455 426.703 294.714C426.962 295.233 427.222 295.623 427.481 295.882C427.871 296.531 428.13 296.921 428.13 296.921C428.13 296.921 428.26 297.18 428.39 297.57C428.39 297.699 428.519 297.829 428.519 297.829C428.39 297.829 428.26 297.959 428 297.959C427.741 298.089 427.351 298.219 426.962 298.348C426.183 298.608 425.275 298.867 424.496 298.997C423.977 299.127 423.588 299.127 423.069 299.127C420.084 299.516 420.862 298.348 422.42 297.31C422.42 297.31 422.549 297.18 422.939 296.921C423.069 296.791 423.328 296.661 423.588 296.531C423.717 296.402 423.717 296.402 423.717 296.402C423.847 296.142 423.458 296.142 423.458 296.142C423.328 296.012 423.198 295.753 423.069 295.623C422.29 294.714 420.992 293.546 419.564 292.638C418.137 291.729 416.579 291.08 415.282 290.691C414.633 290.431 414.113 290.302 413.724 290.302C413.594 290.561 413.335 290.431 413.335 290.431Z" fill="#212121"/>
<path d="M321.058 372.974C321.058 373.104 321.058 373.104 320.929 373.234C320.409 374.012 319.112 375.18 317.554 373.234L317.424 372.974V367.264L319.76 366.225C328.975 362.072 338.19 357.53 346.885 352.598C351.298 350.002 355.581 347.407 359.474 344.422C363.368 341.437 367.132 337.932 370.766 334.428C378.033 327.42 384.912 319.892 391.661 312.235C395.035 308.471 398.41 304.578 401.654 300.684L404.38 297.57C404.38 297.57 404.509 297.44 404.899 297.05C405.029 296.921 405.288 296.661 405.418 296.531C405.807 296.142 406.197 295.753 406.586 295.233C406.975 295.233 407.494 295.363 408.014 295.363C408.273 295.363 408.533 295.363 408.792 295.363C409.311 295.363 409.831 295.363 410.479 295.363C411.648 295.363 412.816 295.233 413.984 295.104C417.098 294.714 418.137 294.584 418.007 294.974C417.877 295.363 416.32 296.272 414.373 297.05C414.503 297.05 413.594 297.31 412.167 297.699C411.518 297.829 410.739 298.089 409.831 298.218C409.052 298.348 407.884 298.478 408.143 298.478C408.143 298.478 408.143 298.478 408.143 298.608L408.014 298.867C407.754 299.127 407.624 299.386 407.494 299.646C407.235 300.035 406.975 300.295 406.975 300.295L403.471 304.448C400.227 308.212 396.852 311.976 393.478 315.739C386.729 323.267 379.85 330.535 372.712 337.673C369.078 341.177 365.315 344.681 361.291 347.666C357.138 350.781 352.855 353.377 348.443 355.972C339.617 361.034 330.662 365.447 321.448 369.6L321.318 369.729V372.974H321.058Z" fill="#212121"/>
<path d="M184.396 383.487C184.396 383.487 196.725 418.399 248.768 426.056C300.942 433.713 340.785 412.428 355.451 389.976C364.276 376.608 358.436 347.926 358.436 347.926C358.436 347.926 357.008 348.964 354.023 350.911C354.802 359.866 354.283 374.661 350.389 382.448C341.175 400.878 306.263 434.232 249.158 420.475C223.85 411.26 211.65 402.954 204.642 388.289C204.772 388.159 192.442 387.38 184.396 383.487Z" fill="#212121"/>
<path d="M266.419 344.292C266.419 344.292 269.145 363.37 301.331 374.272C333.518 385.174 347.794 361.423 352.726 351.689C352.726 351.689 353.894 386.082 311.324 388.808C268.755 391.533 256.815 359.477 256.815 359.477L266.419 344.292Z" fill="#212121"/>
<path d="M291.986 383.227C291.986 383.097 291.986 382.967 292.246 382.838C292.765 382.189 293.803 381.41 294.842 381.151C295.361 381.021 296.01 380.891 296.789 381.28C297.437 381.67 298.216 382.319 298.865 383.487C298.865 383.616 299.125 384.006 299.125 384.136C298.476 388.678 296.918 392.831 294.842 396.595L294.582 396.984C293.414 399.061 291.986 401.007 290.559 402.954C290.559 402.954 290.429 403.084 290.17 403.344C289.91 403.603 289.65 403.993 289.131 404.382C288.742 404.771 288.223 405.29 287.574 405.809C286.925 406.329 286.276 406.978 285.497 407.626C284.719 408.275 283.94 408.795 283.031 409.573C282.253 410.222 281.214 410.741 280.306 411.39C278.489 412.558 276.542 413.597 274.725 414.505C273.298 415.284 272 415.803 270.961 416.192C269.923 416.582 269.144 416.841 268.496 416.971C267.198 417.23 266.808 417.101 266.938 416.582C267.068 416.062 267.717 415.284 268.885 414.375C269.923 413.467 271.351 412.299 272.908 411.001C272.778 411.131 273.557 410.352 274.855 409.314C275.504 408.795 276.283 408.016 277.061 407.367C277.84 406.588 278.749 405.939 279.527 405.031C280.306 404.122 281.085 403.344 281.863 402.565C282.512 401.656 283.161 400.878 283.68 400.229C284.199 399.58 284.589 398.931 284.848 398.542C285.108 398.152 285.238 397.893 285.238 397.893L286.016 396.854C286.276 396.465 286.536 396.076 286.795 395.816C287.184 395.037 287.833 394.388 288.223 393.61L288.353 393.35C290.17 389.976 291.467 386.601 291.986 383.227Z" fill="#212121"/>
<path d="M286.665 344.551C286.665 344.681 286.665 344.681 286.536 344.681C286.146 344.941 285.497 345.2 284.978 345.07C284.329 344.941 283.81 344.551 283.421 343.383C283.421 343.383 283.421 343.124 283.421 342.994C284.329 341.177 285.238 339.36 286.146 337.543C289.131 332.222 292.765 327.16 297.048 322.618C301.331 318.075 306.133 314.182 311.714 311.197C317.165 308.212 323.265 306.395 329.494 305.616C331.052 305.486 332.609 305.357 334.166 305.357C335.724 305.357 337.281 305.357 338.839 305.486L340.915 305.746C341.564 305.746 342.083 305.876 342.732 306.005C342.732 306.005 344.03 306.395 345.977 306.784C346.885 307.044 347.924 307.433 348.962 307.822C350 308.212 351.038 308.601 351.817 308.991C357.787 311.716 354.932 311.586 351.168 310.807C351.298 310.807 350.779 310.678 349.87 310.548C348.962 310.418 347.794 310.159 346.626 310.029C345.458 309.769 344.29 309.769 343.381 309.639C342.473 309.51 341.824 309.51 341.824 309.51C341.305 309.38 340.785 309.38 340.137 309.38L337.541 309.12C336.113 309.12 334.686 308.991 333.258 309.12C331.83 309.25 330.403 309.25 328.975 309.51C323.265 310.288 317.814 311.976 312.882 314.831C302.889 320.412 294.972 329.496 289.261 339.49C288.353 341.047 287.444 342.734 286.665 344.551Z" fill="#212121"/>
<path d="M354.932 390.235C354.932 390.365 354.802 390.365 354.672 390.365C354.283 390.625 353.634 390.754 352.985 390.495C352.466 390.235 351.947 389.716 351.817 388.548V388.289C352.855 386.731 353.893 385.044 354.802 383.357C358.566 376.738 361.421 369.729 363.368 362.462L364.146 359.347C364.146 359.347 364.276 359.087 364.406 358.438C364.536 357.919 364.795 357.14 364.925 356.232C365.185 355.323 365.444 354.415 365.574 353.377C365.834 352.338 366.093 351.3 366.223 350.392C367.261 344.032 367.91 346.498 368.17 350.651C368.299 350.392 368.17 352.858 368.04 355.453C367.91 356.751 367.78 357.919 367.651 358.957C367.521 359.866 367.391 360.515 367.391 360.515L366.742 363.37C364.795 371.027 361.68 378.295 357.787 385.044C357.138 386.861 356.1 388.548 354.932 390.235Z" fill="#212121"/>
<path d="M294.452 325.862C294.452 325.992 294.452 325.992 294.452 326.122C294.193 327.03 293.284 328.458 291.338 327.16C291.338 327.16 291.208 327.03 291.078 326.901L289.261 321.19C286.276 311.456 283.291 301.593 280.436 291.729C279.008 286.797 277.71 281.866 276.542 276.804C276.283 275.506 275.893 274.338 275.764 272.911C275.634 272.262 275.504 271.613 275.374 270.964C275.374 270.185 275.244 269.406 275.244 268.757C275.374 266.032 275.893 263.436 276.672 260.841C277.451 258.245 278.619 255.779 280.306 253.443C281.993 251.237 284.459 249.29 287.314 248.381C290.17 247.473 293.155 247.732 295.88 248.252C298.606 248.9 301.201 250.198 303.408 251.885C307.82 255.26 310.805 260.192 312.492 265.253L312.752 266.292L312.882 266.811C313.012 267.07 313.012 267.46 313.141 267.719C313.271 268.368 313.401 268.887 313.531 269.536C313.531 269.536 313.66 270.964 313.79 272.781C313.79 274.598 313.79 277.064 313.531 279.01C313.401 280.698 313.012 281.736 312.752 282.385C312.363 283.034 312.103 282.904 312.103 282.644C311.973 282.385 311.973 282.125 311.973 281.476C311.843 280.827 311.843 279.919 311.714 279.01C311.714 279.27 311.454 276.934 311.065 274.468C310.935 273.3 310.675 272.132 310.416 271.223C310.156 270.315 310.027 269.796 310.027 269.796C309.897 269.277 309.767 268.757 309.767 268.238L309.637 267.46L309.378 266.551C309.248 266.032 308.988 265.383 308.729 264.864C307.041 260.451 304.186 256.428 300.293 253.962C298.346 252.664 296.269 251.885 293.933 251.626C291.727 251.237 289.521 251.366 287.574 252.275C285.627 253.183 284.07 254.741 282.772 256.558C281.474 258.504 280.695 260.711 280.046 262.917C279.657 264.085 279.527 265.253 279.268 266.421C279.138 267.589 278.878 268.887 279.008 269.796C279.008 270.704 279.397 272.002 279.527 273.17L280.306 276.804C281.474 281.606 282.772 286.538 284.199 291.34C286.925 300.944 289.91 310.548 292.765 320.152L294.452 325.862Z" fill="#212121"/>
<path d="M297.048 266.292C297.048 266.162 297.048 266.162 297.048 266.032C297.178 265.123 297.827 263.566 300.033 264.475L300.293 264.604L302.888 269.925L310.416 285.11L311.843 288.095C311.843 288.095 313.92 293.157 315.218 296.791C317.424 302.891 315.607 300.944 313.401 297.569C313.531 297.959 308.469 289.263 308.469 289.263L307.171 286.668L299.644 271.483L297.048 266.292Z" fill="#212121"/>
<path d="M307.561 285.37C307.69 285.37 307.69 285.37 307.561 285.37C308.21 285.629 309.378 286.278 309.767 287.965V288.095C309.767 288.095 308.988 288.614 307.95 289.393C306.912 290.172 305.484 290.951 304.056 291.729C302.629 292.508 301.071 293.157 299.903 293.676C298.735 294.065 297.957 294.455 297.957 294.455C297.957 294.455 297.437 294.584 296.659 294.584C295.88 294.584 294.972 294.584 294.193 294.584C291.597 294.325 292.506 293.287 293.804 292.638C293.674 292.638 294.582 292.248 295.361 291.859C296.14 291.47 296.918 291.08 296.918 291.08C296.918 291.08 299.774 290.172 302.369 288.614C303.667 287.965 304.965 287.057 305.873 286.408C307.041 285.889 307.561 285.37 307.561 285.37Z" fill="#212121"/>
<path d="M335.854 304.578C335.854 304.708 335.854 304.708 335.724 304.837C335.205 305.616 333.907 306.784 332.35 304.837L332.22 304.578L332.35 298.608L332.998 266.681L333.388 250.718L333.518 242.801L333.647 238.777V237.739V236.701C333.647 236.052 333.777 235.273 333.907 234.624C334.296 231.899 334.945 229.044 336.503 226.448C337.281 225.15 338.19 223.852 339.488 222.944C340.656 221.905 342.213 221.257 343.771 220.867C346.885 220.088 349.87 220.608 352.596 221.516C355.321 222.295 357.917 223.982 360.123 225.929C364.406 229.952 366.742 235.403 367.91 240.854L368.17 242.411C368.17 242.671 368.3 243.06 368.3 243.32L368.429 245.137C368.429 245.137 368.429 245.526 368.429 246.045C368.429 246.694 368.3 247.473 368.3 248.381C368.17 249.29 368.04 250.458 367.91 251.496C367.651 252.535 367.391 253.573 367.132 254.611C366.612 256.168 366.093 257.207 365.704 257.726C365.315 258.245 365.185 258.375 365.055 258.115C364.796 257.726 365.055 256.039 365.185 254.092C365.185 254.222 365.185 253.703 365.185 252.794C365.185 252.405 365.185 251.886 365.315 251.366C365.315 250.847 365.315 250.198 365.315 249.679C365.315 248.511 365.185 247.343 365.055 246.435C364.925 245.526 364.796 245.007 364.796 245.007C364.796 244.488 364.666 243.969 364.666 243.32L364.536 242.541L364.406 241.633C364.276 240.984 364.147 240.465 364.017 239.816C363.757 238.648 363.238 237.48 362.849 236.311C362.589 235.792 362.33 235.143 362.07 234.624C361.81 234.105 361.551 233.586 361.162 233.067C359.994 230.99 358.306 229.173 356.489 227.746C354.672 226.188 352.466 225.41 350.13 224.631C348.962 224.371 347.794 224.242 346.626 224.242C345.458 224.242 344.419 224.501 343.511 224.89C341.564 225.669 340.007 227.356 339.098 229.433C338.06 231.509 337.541 233.975 337.411 236.441C337.411 237.09 337.281 237.609 337.281 238.258V240.205L337.152 244.099L337.022 251.886L336.632 267.589L335.983 298.997L335.854 304.578Z" fill="#212121"/>
<path d="M364.536 302.242C364.536 302.372 364.536 302.372 364.406 302.501C363.887 303.28 362.719 304.578 361.032 302.761C361.032 302.761 360.902 302.631 360.902 302.501L360.512 296.531C360.123 289.263 359.604 281.866 358.955 274.598L358.047 263.696L357.527 258.245L357.138 254.741C357.138 254.741 356.878 249.29 356.878 245.526C356.619 239.037 357.787 241.373 358.825 245.396C358.825 245.137 359.344 247.603 359.864 249.939C360.383 252.405 360.772 254.871 360.772 254.871L361.161 258.634L361.68 264.085L362.589 274.857C363.108 281.995 363.627 289.263 364.017 296.531L364.536 302.242Z" fill="#212121"/>
<path d="M334.815 277.453C334.426 276.804 334.296 275.506 335.334 274.079L335.464 273.949C335.464 273.949 335.724 273.949 336.113 274.079C336.503 274.079 337.022 274.208 337.541 274.208C338.709 274.338 340.396 274.468 341.953 274.598C345.198 274.728 348.313 274.468 348.313 274.468C348.313 274.468 348.832 274.468 349.611 274.598C350.389 274.728 351.298 274.857 351.947 274.987C354.543 275.376 353.764 276.285 352.206 276.934C352.336 276.934 351.298 277.193 350.389 277.583C349.481 277.842 348.443 278.102 348.443 278.102C348.443 278.102 345.068 278.362 341.694 278.232C340.007 278.232 338.32 277.972 337.022 277.842C335.724 277.583 334.945 277.453 334.815 277.453Z" fill="#212121"/>
<path d="M186.213 396.725C186.342 396.725 186.342 396.854 186.472 396.984C186.732 397.373 186.991 398.152 186.732 398.671C186.472 399.19 185.823 399.58 184.785 399.839H184.525C183.877 399.45 183.098 399.19 182.449 399.061C181.8 398.931 181.151 399.061 180.632 399.45C179.853 399.839 179.074 400.748 178.555 401.786C178.036 402.824 177.517 403.992 177.258 405.29C176.609 407.886 176.349 410.611 175.96 413.337C175.57 416.062 175.181 418.918 174.402 421.773C173.624 424.628 172.456 427.613 170.119 429.949C168.951 431.117 167.394 432.026 165.837 432.545C164.279 433.064 162.592 433.194 161.035 433.064C159.477 432.934 158.049 432.675 156.492 432.285C155.064 431.896 153.507 431.247 152.209 430.339C150.782 429.43 149.614 428.132 148.835 426.575C148.056 425.017 147.667 423.33 147.667 421.773C147.667 421.643 147.667 421.254 147.667 421.254V420.994V420.475C147.667 420.086 147.667 419.826 147.797 419.567C147.797 418.918 147.926 418.269 148.056 417.62C148.056 417.62 148.445 416.192 149.224 414.375C150.003 412.558 151.171 410.482 152.339 408.924C154.286 406.199 155.194 405.68 155.324 406.199C155.454 406.718 154.805 408.146 154.026 409.962C154.156 409.833 153.118 411.909 152.469 414.245C152.079 415.413 151.82 416.452 151.69 417.36C151.56 418.269 151.43 418.788 151.43 418.788C151.301 419.307 151.301 419.826 151.301 420.345C151.301 420.605 151.301 420.864 151.301 421.124C151.301 421.254 151.301 422.032 151.43 422.552C151.69 424.888 152.988 426.705 154.935 427.743C155.973 428.262 157.141 428.781 158.309 429.041C159.477 429.3 160.775 429.56 161.943 429.56C164.409 429.56 166.485 428.781 168.043 427.094C169.6 425.407 170.509 422.941 171.158 420.475C171.807 417.879 172.196 415.284 172.585 412.558C172.975 409.833 173.364 407.107 174.013 404.252C174.402 402.824 174.921 401.397 175.57 399.969C176.219 398.542 177.387 397.114 179.074 396.205C180.243 395.556 181.67 395.297 182.968 395.427C184.006 395.686 185.174 396.205 186.213 396.725Z" fill="#212121"/>
<path d="M155.713 403.084C155.713 403.084 148.316 401.007 147.018 406.199C145.72 411.39 150.911 410.222 153.507 408.275C156.103 406.328 157.53 404.771 155.713 403.084Z" fill="#212121"/>
<path d="M355.711 194.132C355.84 194.261 355.84 194.391 355.711 194.651C355.581 195.559 355.192 196.857 354.283 197.506C353.375 198.285 351.817 198.414 349.87 197.376C349.741 197.376 349.481 197.117 349.351 196.987C347.924 193.353 346.496 189.719 344.809 186.085C343.122 182.191 341.434 178.428 339.617 174.534C338.709 172.587 337.8 170.77 336.762 168.824C335.854 167.007 334.815 165.06 333.777 163.243L332.22 160.388C331.701 159.479 331.181 158.441 330.533 157.532C330.533 157.532 330.143 156.884 329.624 155.975C329.105 154.937 328.326 153.639 327.288 152.082C326.769 151.303 326.25 150.524 325.731 149.616C325.211 148.837 324.563 147.928 324.043 147.02C323.394 146.111 322.875 145.333 322.226 144.424C321.577 143.646 321.058 142.867 320.409 142.088C319.89 141.439 319.501 140.92 318.982 140.401C318.592 139.882 318.073 139.493 317.814 139.103C317.165 138.324 316.516 137.805 316.127 137.286C315.348 136.378 315.088 136.118 315.348 136.378C315.867 136.897 316.516 137.546 317.295 138.324C317.814 138.844 318.463 139.363 318.982 140.012C319.631 140.661 320.28 141.439 320.929 142.088C320.799 141.958 321.577 142.737 322.746 144.035C323.914 145.333 325.471 147.28 327.028 149.097C328.586 151.043 330.143 152.99 331.181 154.547C332.35 156.105 333.128 157.013 333.128 157.013C334.296 158.571 335.335 160.128 336.373 161.686C337.541 163.503 338.709 165.32 339.877 167.007C341.045 168.824 342.083 170.641 343.251 172.458C345.458 176.092 347.664 179.855 349.741 183.619C351.947 186.993 353.894 190.627 355.711 194.132Z" fill="#212121"/>
<path d="M280.046 184.398C280.046 184.528 280.176 184.657 280.046 184.917C279.787 185.825 279.138 186.993 278.1 187.513C277.061 188.032 275.504 188.032 273.687 186.604C273.557 186.604 273.298 186.345 273.298 186.085C272.519 182.191 271.61 178.428 270.702 174.664C269.664 170.381 268.496 166.098 267.328 161.815C266.679 159.739 266.16 157.532 265.511 155.456L264.472 152.341C264.213 151.303 263.823 150.265 263.434 149.226L262.396 146.111L261.228 142.997C261.228 142.997 260.968 142.348 260.709 141.309C260.319 140.271 259.8 138.714 259.151 137.027C258.762 136.118 258.502 135.21 258.113 134.301C257.724 133.393 257.334 132.484 256.815 131.446C256.426 130.537 256.036 129.499 255.517 128.591C254.998 127.682 254.609 126.774 254.09 125.995C253.7 125.346 253.311 124.697 253.051 124.048C252.662 123.529 252.402 123.01 252.143 122.491C251.624 121.582 251.105 120.933 250.845 120.414C250.196 119.376 250.066 119.116 250.196 119.376C250.585 120.025 251.105 120.674 251.754 121.582C252.143 122.231 252.662 122.88 253.181 123.529C253.7 124.308 254.219 125.086 254.739 125.995C254.609 125.865 255.258 126.774 256.166 128.201C257.075 129.759 258.243 131.835 259.541 134.042C260.709 136.248 261.877 138.454 262.785 140.141C263.694 141.829 264.213 142.997 264.213 142.997C264.602 143.905 264.991 144.684 265.381 145.592L266.549 148.188C266.938 149.226 267.457 150.265 267.847 151.303L269.145 154.418C270.053 156.494 270.832 158.571 271.61 160.647C273.298 164.8 274.855 169.083 276.283 173.366C277.71 176.741 278.878 180.504 280.046 184.398Z" fill="#212121"/>
<path d="M209.055 209.576C209.055 209.706 209.055 209.835 208.795 209.965C208.146 210.614 207.108 211.393 205.94 211.393C204.772 211.393 203.474 210.744 202.436 208.667C202.436 208.538 202.306 208.278 202.306 208.018C203.344 204.255 204.382 200.491 205.291 196.597C205.94 193.483 206.719 190.498 207.238 187.383C207.627 185.176 208.016 183.1 208.406 180.894C208.406 180.894 208.536 180.245 208.795 179.077C209.055 177.909 209.314 176.351 209.574 174.534C209.833 172.717 210.223 170.641 210.482 168.564C210.742 166.488 211.001 164.411 211.131 162.464C211.391 159.22 211.391 157.143 211.391 155.975C211.391 154.807 211.391 154.418 211.391 154.807C211.391 155.586 211.391 156.494 211.521 157.532C211.65 158.96 211.65 160.777 211.78 162.724C211.78 162.464 211.78 163.632 211.91 165.32C211.91 167.136 212.04 169.473 212.04 171.939C212.04 174.404 212.04 176.87 212.04 178.817C212.04 180.764 212.04 181.932 212.04 181.932C211.91 183.879 211.91 185.696 211.65 187.642C211.391 190.887 211.131 194.002 210.872 197.246C210.223 201.529 209.704 205.553 209.055 209.576Z" fill="#212121"/>
<path d="M173.494 287.057C173.234 287.576 173.364 287.187 173.494 287.057C173.494 286.927 173.753 286.408 174.143 285.629C174.662 284.851 175.181 283.812 175.96 282.774C177.258 280.698 178.815 278.881 178.815 278.881C178.815 278.881 179.983 277.842 181.021 277.453C181.93 277.064 182.319 277.193 182.579 277.453C182.709 277.713 182.579 278.232 182.319 278.751C182.449 278.751 181.93 279.27 181.54 279.789C181.151 280.308 180.632 280.827 180.632 280.827C180.632 280.827 178.815 282.255 177.128 283.812C176.219 284.591 175.441 285.37 174.792 286.019C174.013 286.538 173.624 287.057 173.494 287.057Z" fill="#ECEDF2"/>
<path d="M183.357 317.426C183.487 317.426 183.487 317.426 183.617 317.556C184.266 318.205 185.304 319.633 183.228 320.931L182.968 321.06C180.891 320.801 178.815 320.282 176.868 319.503C173.883 318.335 171.028 316.777 168.692 314.441C167.524 313.273 166.615 311.846 165.836 310.288C165.577 309.51 165.188 308.731 164.928 307.822C164.798 307.433 164.668 307.044 164.668 306.525L164.539 305.227C164.409 304.578 164.539 303.929 164.539 303.41C164.539 302.761 164.539 302.242 164.668 301.593C164.668 301.593 164.928 300.165 165.707 298.218C166.356 296.401 167.653 294.325 168.822 292.638C170.768 289.912 171.677 289.393 171.807 289.912C171.936 290.431 171.287 291.859 170.509 293.676C170.638 293.546 169.6 295.623 168.951 297.829C168.562 298.997 168.432 300.035 168.302 300.944C168.173 301.852 168.173 302.371 168.173 302.371C168.043 302.761 168.173 303.15 168.043 303.669C168.043 304.059 168.043 304.448 168.043 304.967L168.173 305.876C168.173 306.135 168.302 306.525 168.432 306.784C168.562 307.433 168.822 307.952 169.081 308.601C169.6 309.769 170.379 310.807 171.287 311.716C173.104 313.663 175.57 314.961 178.166 315.999C179.723 316.777 181.54 317.167 183.357 317.426Z" fill="#ECEDF2"/>
<path d="M61.3601 110.032C61.8793 110.551 62.5282 111.589 62.5282 113.276V113.406C62.3984 113.406 52.405 116.651 52.405 116.651C52.405 116.651 50.7178 116.78 49.42 116.651C47.2137 116.521 47.7328 115.483 48.9008 114.704C48.7711 114.704 51.4965 113.146 51.4965 113.146C51.4965 113.146 61.2303 110.032 61.3601 110.032Z" fill="#212121"/>
<path d="M299.254 386.212C299.125 385.563 299.125 384.265 299.773 382.837C299.773 382.837 299.773 382.708 299.903 382.708C299.903 382.708 300.422 382.837 301.071 382.837C301.72 382.967 302.759 383.097 303.667 383.097C305.484 383.227 307.431 383.357 307.431 383.357C307.431 383.357 308.599 383.746 309.507 384.265C310.935 385.044 310.416 385.823 309.507 386.212C309.507 386.212 308.988 386.471 308.469 386.601C307.82 386.731 307.301 386.861 307.301 386.861C307.301 386.861 305.354 386.731 303.407 386.601C302.369 386.471 301.461 386.342 300.682 386.342C299.903 386.212 299.384 386.212 299.254 386.212Z" fill="#ECEDF2"/>
<path d="M267.847 368.821C267.847 368.691 267.717 368.691 267.717 368.561C267.587 367.523 268.106 365.966 270.442 366.485L270.702 366.615C271.87 368.172 273.038 369.6 274.466 370.897C275.634 372.066 276.932 373.234 278.359 374.142C279.268 374.791 280.046 375.31 280.955 375.959C280.955 375.959 281.993 376.738 283.551 377.646C285.108 378.555 287.055 379.723 288.742 380.631C291.597 382.059 292.506 382.578 291.987 382.838C291.597 383.097 289.91 382.838 287.833 382.448C287.963 382.578 285.627 381.929 283.291 380.891C280.955 379.982 278.619 378.684 278.619 378.684C277.84 378.165 276.932 377.646 276.153 376.997C274.595 375.959 273.168 374.661 271.87 373.363C270.442 372.066 269.145 370.508 267.847 368.821Z" fill="#ECEDF2"/>
<path d="M207.757 393.61C207.757 393.48 207.757 393.48 207.757 393.35C207.757 392.831 208.016 392.182 208.536 391.793C209.055 391.403 209.704 391.404 210.742 391.923L211.001 392.052C211.78 393.74 212.818 395.297 213.857 396.854C218.269 403.084 224.499 408.016 231.248 411.65C232.156 412.169 233.195 412.558 234.103 413.077C234.103 413.077 234.363 413.207 234.882 413.467C235.401 413.726 236.05 414.116 236.828 414.505C238.516 415.284 240.462 416.322 242.279 417.101C248.249 419.567 245.654 419.696 241.63 418.918C241.76 418.918 241.241 418.918 240.333 418.658C239.424 418.399 238.256 418.009 237.088 417.75C236.439 417.62 235.92 417.36 235.271 417.231C234.752 417.101 234.233 416.841 233.714 416.711C232.805 416.322 232.156 416.192 232.156 416.192C231.248 415.803 230.339 415.414 229.561 414.894C222.293 411.001 215.674 405.81 210.872 398.931C209.704 397.244 208.665 395.427 207.757 393.61Z" fill="#ECEDF2"/>
</svg>
