<svg width="154" height="40" viewBox="0 0 154 40" fill="none" xmlns="http://www.w3.org/2000/svg">
<path d="M0 2.22032V0.621686H0.483666L4.17711 0.7105C6.31697 0.740104 8.61805 0.740104 11.0803 0.7105L15.3454 0.621686H15.917V2.22032V3.81895H14.0703H12.2236L16.0929 13.0111C18.6724 19.1984 19.9622 22.2773 19.9622 22.2477L27.7009 3.90777C27.7009 3.84856 27.1 3.81895 25.8981 3.81895H24.0514V2.22032V0.621686H24.4911L27.7448 0.7105C29.6209 0.740104 31.3357 0.740104 32.8893 0.7105C34.6774 0.65129 35.5861 0.621686 35.6154 0.621686H35.9672V2.22032V3.81895H33.7247H31.4383L25.8102 17.2741C21.9995 26.2738 20.0795 30.8033 20.0502 30.8625C19.9036 31.0993 19.6691 31.277 19.3466 31.3954C19.0535 31.4842 18.2767 31.499 17.0162 31.4398C16.8111 31.4398 16.6791 31.425 16.6205 31.3954C16.2981 31.277 16.0636 31.0993 15.917 30.8625C15.8877 30.8033 13.9677 26.2738 10.157 17.2741L4.52887 3.81895H2.24245H0V2.22032Z" fill="#D19144"/>
<path d="M41.7634 11.0128L44.7094 11.0572C46.7906 11.3533 48.4614 12.0934 49.7219 13.2775C51.1876 14.7578 52.023 16.7708 52.2282 19.3168C52.3161 20.4122 52.1842 21.0783 51.8325 21.3151C51.7152 21.3743 49.4874 21.4039 45.1491 21.4039H38.6855V22.2921C38.7735 24.3644 39.1839 25.815 39.9167 26.6439C39.9753 26.7031 40.0486 26.7771 40.1365 26.8659C40.9866 27.7245 42.2764 28.2425 44.0059 28.4202C44.6801 28.4794 45.237 28.4646 45.6767 28.3757C47.2596 28.1389 48.3735 27.3396 49.0184 25.9778C49.0477 25.889 49.077 25.815 49.1063 25.7558C49.2529 25.3709 49.4874 25.1637 49.8098 25.1341C49.9564 25.1045 50.2495 25.0897 50.6892 25.0897C51.3341 25.0897 51.7152 25.1193 51.8325 25.1785C52.1842 25.3561 52.3161 25.667 52.2282 26.111C52.0523 26.7327 51.7592 27.31 51.3488 27.8429C50.0297 29.6783 47.9631 30.8181 45.1491 31.2622C44.3283 31.3806 43.2291 31.3954 41.8513 31.3066C41.7634 31.277 41.6755 31.2622 41.5875 31.2622C36.8388 30.6405 33.8049 28.3905 32.4858 24.5124C32.3099 23.9203 32.1634 23.2986 32.0461 22.6473C31.9289 21.8184 31.9289 20.8414 32.0461 19.7165C32.0461 19.6277 32.0461 19.5537 32.0461 19.4944C32.3686 17.5702 33.0574 15.9567 34.1127 14.6541C34.4938 14.1213 35.0507 13.5884 35.7835 13.0555C37.3958 11.8713 39.389 11.1904 41.7634 11.0128ZM43.742 13.766C43.3023 13.6772 42.7454 13.6624 42.0712 13.7216C40.7521 13.9584 39.8287 14.6245 39.3011 15.7199C39.008 16.3416 38.8174 17.2445 38.7295 18.4287V18.8284H42.8187H46.9518L46.9079 18.6063C46.6147 15.8531 45.5594 14.2397 43.742 13.766Z" fill="#D19144"/>
<path d="M58.8827 11.2792C61.6381 11.1608 62.9865 11.1016 62.9279 11.1016H63.1917V12.2562L63.2357 13.4108L63.3676 13.1887C63.9246 12.3598 64.672 11.7677 65.6101 11.4125C67.0464 10.8796 68.6293 10.9684 70.3588 11.6789C70.7399 11.7973 71.077 11.9601 71.3701 12.1674C72.3667 12.8483 72.953 13.692 73.1289 14.6985C73.2461 15.2314 73.2168 15.7347 73.0409 16.2084C72.8064 17.1261 72.2788 17.7922 71.458 18.2067C70.9597 18.4139 70.4614 18.5175 69.9631 18.5175C69.4061 18.5175 68.9078 18.4139 68.4681 18.2067C67.618 17.7922 67.0611 17.1261 66.7972 16.2084C66.7679 16.0603 66.7533 15.7495 66.7533 15.2758C66.7533 14.8022 66.7826 14.4617 66.8412 14.2545C66.9585 13.988 66.9878 13.8548 66.9291 13.8548C66.8412 13.766 66.5774 13.8548 66.1377 14.1213C65.698 14.3285 65.3023 14.6837 64.9505 15.187C64.3936 16.0751 63.9978 17.3777 63.7633 19.0948C63.734 19.3908 63.7047 20.9599 63.6754 23.8019V27.8873H65.5661H67.5007V29.4859V31.0845H67.0171L63.6754 30.9957C61.7407 30.9661 59.9087 30.9661 58.1792 30.9957C56.2152 31.0549 55.2186 31.0845 55.1893 31.0845H54.7935V29.4859V27.8873H56.3325H57.8274V21.7592C57.8274 17.6738 57.7981 15.5571 57.7395 15.409C57.6516 15.113 57.461 14.9206 57.1679 14.8318C56.7575 14.7133 56.1566 14.6541 55.3651 14.6541H54.7935V13.0555V11.4569H54.9254L58.8827 11.2792Z" fill="#D19144"/>
<path d="M77.4841 0.444059C80.4154 0.325643 81.8517 0.266436 81.7931 0.266436H82.0569V6.48334V12.7003C82.0862 12.7003 82.2475 12.6262 82.5406 12.4782C84.6511 11.5013 86.9962 11.0424 89.5757 11.1016C90.6896 11.1312 91.7302 11.3237 92.6976 11.6789C94.2805 12.271 95.5409 13.2035 96.479 14.4765C97.7394 16.2232 98.4136 18.3251 98.5016 20.7822C98.6188 24.5124 97.4023 27.3544 94.8521 29.3083C94.1779 29.8116 93.4304 30.226 92.6096 30.5517C91.5837 30.9661 90.4991 31.2178 89.3559 31.3066C88.3885 31.425 87.4799 31.3954 86.6298 31.2178C85.3986 31.0401 84.2701 30.6997 83.2441 30.1964C82.3354 29.7523 81.6612 29.3231 81.2215 28.9086L81.0896 28.8198L80.2542 29.93L79.3748 31.0401L77.7919 31.0845H76.209V17.9402C76.209 9.17734 76.1796 4.72189 76.121 4.57387C76.0331 4.27782 75.8425 4.08539 75.5494 3.99658C75.139 3.87816 74.5381 3.81895 73.7467 3.81895H73.1751V2.22032V0.621686H73.307C73.1604 0.621686 74.5528 0.562477 77.4841 0.444059ZM88.6084 13.8992C87.817 13.7512 86.8643 13.7808 85.7504 13.988C84.4606 14.2841 83.3907 14.817 82.5406 15.5867L82.3207 15.7643V21.0487V26.2886L82.8484 26.8215C83.5812 27.5616 84.3433 28.0649 85.1348 28.3313C86.7177 28.8642 88.2127 28.7754 89.6197 28.0649C89.7369 28.0057 89.8542 27.9317 89.9715 27.8429C90.5284 27.3988 90.8948 26.9843 91.0707 26.5995C91.4811 25.8594 91.7156 24.32 91.7742 21.9812C91.7742 21.922 91.7742 21.848 91.7742 21.7592C91.8035 18.6507 91.5983 16.6376 91.1586 15.7199C91.0414 15.4831 90.8655 15.2462 90.631 15.0094C90.3672 14.743 90.1474 14.5505 89.9715 14.4321C89.4438 14.1657 88.9895 13.988 88.6084 13.8992Z" fill="#D19144"/>
<path d="M104.489 0.266441C104.548 0.236835 104.812 0.222032 105.281 0.222032C105.779 0.281242 106.101 0.325649 106.248 0.355253C107.391 0.710505 108.212 1.3914 108.71 2.39795C108.974 2.96043 109.106 3.50811 109.106 4.04099C109.106 4.60347 108.974 5.15115 108.71 5.68403C108.212 6.72018 107.391 7.41589 106.248 7.77114C105.984 7.83035 105.618 7.85995 105.149 7.85995C104.65 7.85995 104.284 7.83035 104.049 7.77114C102.877 7.41589 102.042 6.72018 101.543 5.68403C101.309 5.21036 101.191 4.66268 101.191 4.04099C101.191 3.62653 101.206 3.33049 101.235 3.15286C101.382 2.61998 101.646 2.11671 102.027 1.64304C102.642 0.902933 103.463 0.444066 104.489 0.266441ZM104.181 11.2793C107.113 11.1608 108.52 11.1016 108.402 11.1016H108.666V19.4945V27.8873H110.029H111.392V29.4859V31.0845H110.997L108.183 30.9957C106.57 30.9661 104.9 30.9661 103.17 30.9957L100.18 31.0845H99.7844V29.4859V27.8873H101.323H102.818V21.8036C102.818 17.6886 102.804 15.5719 102.774 15.4535C102.657 15.0982 102.467 14.891 102.203 14.8318C101.792 14.7134 101.206 14.6541 100.444 14.6541H99.9163V13.0555V11.4569H100.048L104.181 11.2793Z" fill="#D19144"/>
<path d="M127.104 0.0444059C127.192 0.014802 127.588 0 128.292 0C128.966 0.0296039 129.376 0.0740108 129.523 0.13322C130.05 0.281242 130.505 0.503274 130.886 0.799317C131.179 1.03615 131.501 1.3914 131.853 1.86507C132.088 2.19072 132.293 2.64959 132.469 3.24167C132.527 3.50811 132.557 3.89297 132.557 4.39624C132.557 4.86991 132.527 5.22516 132.469 5.462C132.058 6.76459 131.164 7.4899 129.786 7.63792C129.64 7.66752 129.493 7.68233 129.347 7.68233C128.79 7.68233 128.277 7.56391 127.808 7.32707C127.016 6.94222 126.489 6.32053 126.225 5.462C126.166 5.25477 126.137 4.91432 126.137 4.44065C126.108 3.81896 126.196 3.31569 126.401 2.93083L126.489 2.7532H126.357C126.181 2.7532 125.829 2.82721 125.302 2.97524C124.481 3.24168 123.836 3.68574 123.367 4.30743C123.074 4.63308 122.854 5.03274 122.707 5.50641C122.531 6.06889 122.444 7.26786 122.444 9.10333V11.3681H124.862H127.236V12.9667V14.5653H124.994H122.707V21.2263V27.8873H124.598H126.489V29.4859V31.0845H126.049L122.707 30.9957C120.773 30.9661 118.941 30.9661 117.211 30.9957L114.221 31.0845H113.826V29.4859V27.8873H115.364H116.859V21.2263V14.5653H115.496H114.133V12.9667V11.3681H115.496H116.859V8.8813L116.903 6.35013L116.991 5.95047C117.255 5.06234 117.622 4.30743 118.091 3.68574C119.556 1.79106 122.048 0.621691 125.565 0.177626C125.8 0.148022 126.049 0.118418 126.313 0.0888145C126.518 0.0592088 126.782 0.0444059 127.104 0.0444059Z" fill="#D19144"/>
<path d="M129.641 12.9667V11.3681H129.993L132.675 11.4569C134.258 11.4865 135.943 11.4865 137.731 11.4569L140.809 11.3681H141.205V12.9667V14.5653H140.238C139.622 14.5653 139.314 14.5949 139.314 14.6541L141.337 19.228C142.627 22.1588 143.301 23.6243 143.359 23.6243L147.273 14.6541C147.273 14.5949 146.965 14.5653 146.349 14.5653H145.382V12.9667V11.3681H145.69L148.064 11.4569C149.413 11.4865 150.658 11.4865 151.802 11.4569C153.062 11.3977 153.707 11.3681 153.736 11.3681H154V12.9667V14.5653H152.373H150.746L146.525 24.3348C143.477 31.203 141.952 34.6519 141.952 34.6815C140.809 36.961 139.182 38.5152 137.072 39.3442C135.459 40.0547 133.979 40.1879 132.631 39.7438C131.136 39.2109 130.154 38.1896 129.685 36.6798C129.509 36.1469 129.436 35.614 129.465 35.0811C129.494 34.3114 129.773 33.6453 130.3 33.0828C130.681 32.7276 131.121 32.4759 131.619 32.3279C131.883 32.2391 132.191 32.1947 132.543 32.1947C132.895 32.1947 133.202 32.2391 133.466 32.3279C133.965 32.4759 134.404 32.7276 134.785 33.0828C135.254 33.6157 135.533 34.2522 135.621 34.9923V35.3032H134.126H132.631V35.5696C132.719 36.4281 133.1 36.9758 133.774 37.2126C134.331 37.3903 135.093 37.2718 136.06 36.8574C137.233 36.2949 138.083 35.466 138.611 34.3706L140.062 31.0845C140.062 31.0549 138.86 28.2869 136.456 22.7805L132.895 14.5653H131.268H129.641V12.9667Z" fill="#D19144"/>
</svg>
