<svg width="54" height="49" viewBox="0 0 54 49" fill="none" xmlns="http://www.w3.org/2000/svg">
<rect width="54" height="49" rx="10" fill="#D39245"/>
<path d="M12 13.2953V12H12.4034L15.4841 12.072C17.2689 12.096 19.1883 12.096 21.2421 12.072L24.7995 12H25.2763V13.2953V14.5907H23.7359H22.1956L25.423 22.0389C27.5746 27.0523 28.6504 29.547 28.6504 29.523L35.1051 14.6626C35.1051 14.6147 34.6039 14.5907 33.6015 14.5907H32.0611V13.2953V12H32.4279L35.1418 12.072C36.7066 12.096 38.1369 12.096 39.4328 12.072C40.9242 12.024 41.6822 12 41.7066 12H42V13.2953V14.5907H40.1296H38.2225L33.5281 25.4931C30.3496 32.7854 28.7482 36.4555 28.7237 36.5035C28.6015 36.6954 28.4059 36.8393 28.1369 36.9352C27.8924 37.0072 27.2445 37.0192 26.1932 36.9712C26.022 36.9712 25.912 36.9592 25.8631 36.9352C25.5941 36.8393 25.3985 36.6954 25.2763 36.5035C25.2518 36.4555 23.6504 32.7854 20.4719 25.4931L15.7775 14.5907H13.8704H12V13.2953Z" fill="#ECEDF2"/>
</svg>
